<?xml version="1.0" encoding="utf-8"?>
<!DOCTYPE svg PUBLIC "-//W3C//DTD SVG 20010904//EN" "http://www.w3.org/TR/2001/REC-SVG-20010904/DTD/svg10.dtd">
<svg version="1.0" xmlns="http://www.w3.org/2000/svg" width="1283px" height="2081px" viewBox="0 0 1283 2081" preserveAspectRatio="xMidYMid meet">
 <g fill="#000000" fill-rule="evenodd">
  <path d="M561 2054 C561 2028 561 2028 564 2028 C567 2028 567 2028 567 2002.5 C567 1977 567 1977 570 1977 C573 1977 573 1977 573 1970.5 C573 1964 573 1964 579.5 1964 C586 1964 586 1964 586 1967 C586 1969.7 586.2 1970 589.5 1970 C593 1970 593 1970 593 1980 C593 1990 593 1990 589.5 1990 C586 1990 586 1990 586 2012.5 C586 2035 586 2035 583 2035 C580 2035 580 2035 580 2048 C580 2061 580 2061 586.5 2061 C593 2061 593 2061 593 2057.5 C593 2054 593 2054 619 2054 C645 2054 645 2054 645 2064 C645 2074 645 2074 615.5 2074 C586 2074 586 2074 586 2077 C586 2080 586 2080 573.5 2080 C561 2080 561 2080 561 2054 "/>
  <path d="M671 2077 C671 2074.2 670.7 2074 667.5 2074 C664.1 2074 664 2073.8 664 2070.5 C664 2067.2 663.7 2067 661 2067 C658 2067 658 2067 658 2047.5 C658 2028 658 2028 661 2028 C664 2028 664 2028 664 2021.5 C664 2015 664 2015 667.5 2015 C670.7 2015 671 2014.7 671 2012 C671 2009.3 671.3 2009 674 2009 C676.6 2009 677 2008.6 677 2006 C677 2003.2 677.2 2003 680.5 2003 C683.8 2003 684 2002.8 684 1999.5 C684 1996 684 1996 700 1996 C716 1996 716 1996 716 1999.5 C716 2002.8 716.1 2003 719.5 2003 C722.7 2003 723 2003.2 723 2006 C723 2008.6 723.3 2009 726 2009 C729 2009 729 2009 729 2028.5 C729 2048 729 2048 726 2048 C723 2048 723 2048 723 2054.5 C723 2061 723 2061 719.5 2061 C716.2 2061 716 2061.2 716 2064 C716 2066.6 715.6 2067 713 2067 C710.2 2067 710 2067.2 710 2070.5 C710 2074 710 2074 703.5 2074 C697 2074 697 2074 697 2077 C697 2080 697 2080 684 2080 C671 2080 671 2080 671 2077 M677 2044.5 C677 2028 677 2028 680.5 2028 C683.7 2028 684 2027.7 684 2025 C684 2022.3 684.3 2022 687 2022 C689.7 2022 690 2021.7 690 2018.5 C690 2015.1 690.1 2015 693.5 2015 C696.7 2015 697 2014.7 697 2012 C697 2009.3 697.3 2009 700 2009 C702.6 2009 703 2009.3 703 2012 C703 2014.7 703.2 2015 706.5 2015 C710 2015 710 2015 710 2031.5 C710 2048 710 2048 706.5 2048 C703.2 2048 703 2048.2 703 2051 C703 2053.6 702.6 2054 700 2054 C697.2 2054 697 2054.2 697 2057.5 C697 2061 697 2061 687 2061 C677 2061 677 2061 677 2044.5 "/>
  <path d="M736 2073.5 C736 2067 736 2067 739 2067 C741.6 2067 742 2066.6 742 2064 C742 2061 742 2061 748.5 2061 C755 2061 755 2061 755 2064 C755 2067 755 2067 761.5 2067 C768 2067 768 2067 768 2064 C768 2061 768 2061 774.5 2061 C781 2061 781 2061 781 2057.5 C781 2054.2 780.7 2054 778 2054 C775.3 2054 775 2053.6 775 2051 C775 2048 775 2048 768.5 2048 C762 2048 762 2048 762 2044.5 C762 2041 762 2041 755.5 2041 C749 2041 749 2041 749 2034.5 C749 2028 749 2028 745.5 2028 C742 2028 742 2028 742 2021.5 C742 2015 742 2015 745.5 2015 C749 2015 749 2015 749 2009 C749 2003 749 2003 752 2003 C754.7 2003 755 2002.7 755 1999.5 C755 1996 755 1996 761.5 1996 C768 1996 768 1996 768 1993 C768 1990 768 1990 784.5 1990 C801 1990 801 1990 801 1999.5 C801 2009 801 2009 784.5 2009 C768 2009 768 2009 768 2012 C768 2014.6 767.6 2015 765 2015 C762.2 2015 762 2015.2 762 2018.5 C762 2021.7 762.2 2022 765 2022 C767.6 2022 768 2022.3 768 2025 C768 2027.7 768.2 2028 771.5 2028 C774.8 2028 775 2028.1 775 2031.5 C775 2035 775 2035 781.5 2035 C788 2035 788 2035 788 2038 C788 2040.6 788.3 2041 791 2041 C793.7 2041 794 2041.2 794 2044.5 C794 2047.8 794.1 2048 797.5 2048 C801 2048 801 2048 801 2057.5 C801 2067 801 2067 797.5 2067 C794.1 2067 794 2067.1 794 2070.5 C794 2074 794 2074 787.5 2074 C781 2074 781 2074 781 2077 C781 2080 781 2080 758.5 2080 C736 2080 736 2080 736 2073.5 "/>
  <path d="M826 2077 C826 2074.3 825.6 2074 823 2074 C820.2 2074 820 2073.7 820 2070.5 C820 2067.2 819.7 2067 817 2067 C814 2067 814 2067 814 2057.5 C814 2048 814 2048 817 2048 C820 2048 820 2048 820 2031.5 C820 2015 820 2015 813.5 2015 C807 2015 807 2015 807 2009 C807 2003 807 2003 816.5 2003 C826 2003 826 2003 826 1999.5 C826 1996.1 826.1 1996 829.5 1996 C833 1996 833 1996 833 1983 C833 1970 833 1970 836 1970 C838.6 1970 839 1969.6 839 1967 C839 1964.2 839.2 1964 842.5 1964 C845.7 1964 846 1964.2 846 1967 C846 1969.6 846.3 1970 849 1970 C852 1970 852 1970 852 1983 C852 1996 852 1996 865 1996 C878 1996 878 1996 878 2002.5 C878 2009 878 2009 871.5 2009 C865 2009 865 2009 865 2012 C865 2015 865 2015 852 2015 C839 2015 839 2015 839 2031.5 C839 2048 839 2048 836 2048 C833 2048 833 2048 833 2054.5 C833 2061 833 2061 842.5 2061 C852 2061 852 2061 852 2057.5 C852 2054 852 2054 862 2054 C872 2054 872 2054 872 2057.5 C872 2060.8 871.8 2061 868.5 2061 C865.2 2061 865 2061.2 865 2064 C865 2066.6 864.6 2067 862 2067 C859.2 2067 859 2067.2 859 2070.5 C859 2073.8 858.8 2074 855.5 2074 C852.2 2074 852 2074.2 852 2077 C852 2080 852 2080 839 2080 C826 2080 826 2080 826 2077 "/>
  <path d="M606 1824 C606 1821 606 1821 593 1821 C580 1821 580 1821 580 1817.5 C580 1814 580 1814 573.5 1814 C567 1814 567 1814 567 1811 C567 1808.3 566.6 1808 564 1808 C561.2 1808 561 1807.7 561 1804.5 C561 1801.1 560.8 1801 557.5 1801 C554.2 1801 554 1800.7 554 1798 C554 1795.3 553.6 1795 551 1795 C548 1795 548 1795 548 1788.5 C548 1782 548 1782 544.5 1782 C541 1782 541 1782 541 1775.5 C541 1769 541 1769 538 1769 C535 1769 535 1769 535 1302 C535 835 535 835 544.5 835 C554 835 554 835 554 831.5 C554 828 554 828 560.5 828 C567 828 567 828 567 825 C567 822 567 822 573.5 822 C580 822 580 822 580 818.5 C580 815.2 580.2 815 583 815 C585.6 815 586 814.6 586 812 C586 809.2 586.2 809 589.5 809 C592.8 809 593 808.8 593 805.5 C593 802.2 593.2 802 596 802 C598.6 802 599 801.6 599 799 C599 796.2 599.2 796 602.5 796 C606 796 606 796 606 789.5 C606 783 606 783 609 783 C611.7 783 612 782.7 612 779.5 C612 776.1 612.1 776 615.5 776 C619 776 619 776 619 769.5 C619 763 619 763 622 763 C625 763 625 763 625 753.5 C625 744 625 744 628.5 744 C632 744 632 744 632 737.5 C632 731 632 731 635 731 C638 731 638 731 638 718 C638 705 638 705 641.5 705 C645 705 645 705 645 689 C645 673 645 673 648 673 C651 673 651 673 651 643.5 C651 614 651 614 726 614 C801 614 801 614 801 627 C801 640 801 640 804 640 C807 640 807 640 807 669.5 C807 699 807 699 810.5 699 C814 699 814 699 814 715 C814 731 814 731 817 731 C820 731 820 731 820 744 C820 757 820 757 823 757 C826 757 826 757 826 766.5 C826 776 826 776 829.5 776 C833 776 833 776 833 786 C833 796 833 796 836 796 C839 796 839 796 839 802.5 C839 809 839 809 842.5 809 C846 809 846 809 846 815.5 C846 822 846 822 849 822 C851.6 822 852 822.3 852 825 C852 827.7 852.2 828 855.5 828 C859 828 859 828 859 834.5 C859 841 859 841 862 841 C864.7 841 865 841.2 865 844.5 C865 847.8 865.1 848 868.5 848 C871.7 848 872 848.2 872 851 C872 853.6 872.3 854 875 854 C877.7 854 878 854.2 878 857.5 C878 860.8 878.1 861 881.5 861 C885 861 885 861 885 1315 C885 1769 885 1769 881.5 1769 C878 1769 878 1769 878 1775.5 C878 1782 878 1782 875 1782 C872 1782 872 1782 872 1788.5 C872 1795 872 1795 868.5 1795 C865.2 1795 865 1795.2 865 1798 C865 1800.6 864.6 1801 862 1801 C859.2 1801 859 1801.2 859 1804.5 C859 1807.8 858.8 1808 855.5 1808 C852.2 1808 852 1808.2 852 1811 C852 1814 852 1814 845.5 1814 C839 1814 839 1814 839 1817.5 C839 1821 839 1821 826.5 1821 C814 1821 814 1821 814 1824 C814 1827 814 1827 804 1827 C794 1827 794 1827 794 1824 C794 1821 794 1821 784.5 1821 C775 1821 775 1821 775 1817.5 C775 1814 775 1814 768.5 1814 C762 1814 762 1814 762 1811 C762 1808 762 1808 755.5 1808 C749 1808 749 1808 749 1804.5 C749 1801.1 748.8 1801 745.5 1801 C742 1801 742 1801 742 1794.5 C742 1788 742 1788 739 1788 C736.3 1788 736 1787.6 736 1785 C736 1782.2 735.7 1782 732.5 1782 C729 1782 729 1782 729 1772 C729 1762 729 1762 726 1762 C723 1762 723 1762 723 1460.5 C723 1159 723 1159 710 1159 C697 1159 697 1159 697 1460.5 C697 1762 697 1762 693.5 1762 C690 1762 690 1762 690 1772 C690 1782 690 1782 687 1782 C684.3 1782 684 1782.3 684 1785 C684 1787.7 683.7 1788 680.5 1788 C677 1788 677 1788 677 1794.5 C677 1801 677 1801 674 1801 C671.2 1801 671 1801.2 671 1804.5 C671 1808 671 1808 664.5 1808 C658 1808 658 1808 658 1811 C658 1813.7 657.7 1814 654.5 1814 C651.1 1814 651 1814.1 651 1817.5 C651 1821 651 1821 638 1821 C625 1821 625 1821 625 1824 C625 1827 625 1827 615.5 1827 C606 1827 606 1827 606 1824 "/>
  <path d="M502 1285.5 C502 1282 502 1282 495.5 1282 C489 1282 489 1282 489 1279 C489 1276.3 488.6 1276 486 1276 C483.2 1276 483 1275.7 483 1272.5 C483 1269.1 482.8 1269 479.5 1269 C476 1269 476 1269 476 1262.5 C476 1256 476 1256 473 1256 C470 1256 470 1256 470 990.5 C470 725 470 725 473 725 C476 725 476 725 476 718.5 C476 712 476 712 479.5 712 C482.8 712 483 711.8 483 708.5 C483 705.2 483.2 705 486 705 C488.6 705 489 704.6 489 702 C489 699 489 699 495.5 699 C502 699 502 699 502 695.5 C502 692 502 692 508.5 692 C515 692 515 692 515 695.5 C515 698.8 515.1 699 518.5 699 C522 699 522 699 522 712 C522 725 522 725 518.5 725 C515.2 725 515 725.2 515 728 C515 730.7 515.2 731 518.5 731 C522 731 522 731 522 1010 C522 1289 522 1289 512 1289 C502 1289 502 1289 502 1285.5 "/>
  <path d="M904 1091 C904 893 904 893 907.5 893 C911 893 911 893 911 922.5 C911 952 911 952 914 952 C917 952 917 952 917 1081.5 C917 1211 917 1211 920.5 1211 C924 1211 924 1211 924 1217.5 C924 1224 924 1224 927 1224 C929.7 1224 930 1224.2 930 1227.5 C930 1230.8 930.1 1231 933.5 1231 C936.7 1231 937 1231.2 937 1234 C937 1236.6 937.3 1237 940 1237 C942.7 1237 943 1237.2 943 1240.5 C943 1243.8 943.1 1244 946.5 1244 C950 1244 950 1244 950 1250 C950 1256 950 1256 946.5 1256 C943 1256 943 1256 943 1262.5 C943 1269 943 1269 940 1269 C937.2 1269 937 1269.2 937 1272.5 C937 1275.8 936.8 1276 933.5 1276 C930.2 1276 930 1276.2 930 1279 C930 1282 930 1282 923.5 1282 C917 1282 917 1282 917 1285.5 C917 1289 917 1289 910.5 1289 C904 1289 904 1289 904 1091 "/>
  <path d="M969 1234 C969 1231 969 1231 962.5 1231 C956 1231 956 1231 956 1227.5 C956 1224.2 955.7 1224 953 1224 C950.3 1224 950 1223.6 950 1221 C950 1218.2 949.7 1218 946.5 1218 C943.1 1218 943 1217.8 943 1214.5 C943 1211.2 942.7 1211 940 1211 C937 1211 937 1211 937 1204.5 C937 1198 937 1198 933.5 1198 C930 1198 930 1198 930 1156 C930 1114 930 1114 933.5 1114 C937 1114 937 1114 937 1065 C937 1016 937 1016 933.5 1016 C930 1016 930 1016 930 967.5 C930 919 930 919 927 919 C924 919 924 919 924 899.5 C924 880 924 880 920.5 880 C917 880 917 880 917 864 C917 848 917 848 914 848 C911 848 911 848 911 835 C911 822 911 822 907.5 822 C904 822 904 822 904 812 C904 802 904 802 901 802 C898 802 898 802 898 792.5 C898 783 898 783 894.5 783 C891 783 891 783 891 776.5 C891 770 891 770 888 770 C885 770 885 770 885 792.5 C885 815 885 815 881.5 815 C878 815 878 815 878 808.5 C878 802 878 802 875 802 C872 802 872 802 872 795.5 C872 789 872 789 868.5 789 C865 789 865 789 865 782.5 C865 776 865 776 862 776 C859 776 859 776 859 766.5 C859 757 859 757 855.5 757 C852 757 852 757 852 744 C852 731 852 731 849 731 C846 731 846 731 846 718 C846 705 846 705 842.5 705 C839 705 839 705 839 679 C839 653 839 653 836 653 C833 653 833 653 833 633.5 C833 614 833 614 852.5 614 C872 614 872 614 872 617.5 C872 621 872 621 881.5 621 C891 621 891 621 891 624 C891 627 891 627 897.5 627 C904 627 904 627 904 630.5 C904 633.8 904.1 634 907.5 634 C910.7 634 911 634.2 911 637 C911 640 911 640 917.5 640 C924 640 924 640 924 643.5 C924 646.7 924.2 647 927 647 C929.6 647 930 647.3 930 650 C930 652.7 930.2 653 933.5 653 C936.8 653 937 653.1 937 656.5 C937 659.7 937.2 660 940 660 C942.6 660 943 660.3 943 663 C943 665.7 943.2 666 946.5 666 C949.8 666 950 666.1 950 669.5 C950 672.7 950.2 673 953 673 C956 673 956 673 956 679.5 C956 686 956 686 959.5 686 C962.7 686 963 686.2 963 689 C963 691.6 963.3 692 966 692 C969 692 969 692 969 698.5 C969 705 969 705 972.5 705 C976 705 976 705 976 711.5 C976 718 976 718 979 718 C982 718 982 718 982 724.5 C982 731 982 731 985.5 731 C989 731 989 731 989 737.5 C989 744 989 744 992 744 C995 744 995 744 995 750.5 C995 757 995 757 998.5 757 C1002 757 1002 757 1002 766.5 C1002 776 1002 776 1005 776 C1008 776 1008 776 1008 789 C1008 802 1008 802 1011.5 802 C1015 802 1015 802 1015 815 C1015 828 1015 828 1018 828 C1021 828 1021 828 1021 844.5 C1021 861 1021 861 1024.5 861 C1028 861 1028 861 1028 883.5 C1028 906 1028 906 1031 906 C1034 906 1034 906 1034 945 C1034 984 1034 984 1037.5 984 C1041 984 1041 984 1041 1068.5 C1041 1153 1041 1153 1037.5 1153 C1034 1153 1034 1153 1034 1179 C1034 1205 1034 1205 1031 1205 C1028 1205 1028 1205 1028 1211.5 C1028 1218 1028 1218 1024.5 1218 C1021.2 1218 1021 1218.2 1021 1221 C1021 1223.6 1020.6 1224 1018 1224 C1015.2 1224 1015 1224.2 1015 1227.5 C1015 1231 1015 1231 1005 1231 C995 1231 995 1231 995 1234 C995 1237 995 1237 982 1237 C969 1237 969 1237 969 1234 "/>
  <path d="M535 737.5 C535 673 535 673 531.5 673 C528 673 528 673 528 663 C528 653 528 653 525 653 C522 653 522 653 522 646.5 C522 640 522 640 518.5 640 C515 640 515 640 515 630.5 C515 621 515 621 512 621 C509 621 509 621 509 611 C509 601 509 601 505.5 601 C502 601 502 601 502 591.5 C502 582 502 582 499 582 C496 582 496 582 496 572 C496 562 496 562 492.5 562 C489 562 489 562 489 549 C489 536 489 536 486 536 C483 536 483 536 483 523 C483 510 483 510 479.5 510 C476 510 476 510 476 491 C476 472 476 472 473 472 C470 472 470 472 470 407 C470 342 470 342 473 342 C476 342 476 342 476 329 C476 316 476 316 479.5 316 C483 316 483 316 483 309.5 C483 303 483 303 486 303 C489 303 489 303 489 296.5 C489 290 489 290 492.5 290 C495.8 290 496 289.8 496 286.5 C496 283.2 496.2 283 499 283 C501.6 283 502 282.6 502 280 C502 277.2 502.2 277 505.5 277 C509 277 509 277 509 270.5 C509 264 509 264 515.5 264 C522 264 522 264 522 260.5 C522 257.2 522.2 257 525 257 C527.6 257 528 256.6 528 254 C528 251.2 528.2 251 531.5 251 C534.8 251 535 250.8 535 247.5 C535 244 535 244 541.5 244 C548 244 548 244 548 241 C548 238 548 238 557.5 238 C567 238 567 238 567 235 C567 232 567 232 586.5 232 C606 232 606 232 606 228.5 C606 225 606 225 619 225 C632 225 632 225 632 228.5 C632 232 632 232 651.5 232 C671 232 671 232 671 235 C671 238 671 238 680.5 238 C690 238 690 238 690 241 C690 244 690 244 696.5 244 C703 244 703 244 703 247.5 C703 250.8 703.1 251 706.5 251 C710 251 710 251 710 257.5 C710 264 710 264 713 264 C715.6 264 716 264.3 716 267 C716 270 716 270 700 270 C684 270 684 270 684 273.5 C684 277 684 277 671 277 C658 277 658 277 658 280 C658 283 658 283 651.5 283 C645 283 645 283 645 286.5 C645 290 645 290 638.5 290 C632 290 632 290 632 293 C632 296 632 296 625.5 296 C619 296 619 296 619 299.5 C619 302.8 618.8 303 615.5 303 C612.2 303 612 303.2 612 306 C612 308.6 611.6 309 609 309 C606.2 309 606 309.2 606 312.5 C606 315.8 605.8 316 602.5 316 C599.2 316 599 316.2 599 319 C599 321.6 598.6 322 596 322 C593.2 322 593 322.2 593 325.5 C593 328.8 592.8 329 589.5 329 C586.2 329 586 329.2 586 332 C586 334.6 585.6 335 583 335 C580.2 335 580 335.2 580 338.5 C580 341.8 579.8 342 576.5 342 C573 342 573 342 573 348.5 C573 355 573 355 570 355 C567 355 567 355 567 361.5 C567 368 567 368 564 368 C561 368 561 368 561 377.5 C561 387 561 387 557.5 387 C554 387 554 387 554 403.5 C554 420 554 420 551 420 C548 420 548 420 548 433 C548 446 548 446 551 446 C554 446 554 446 554 462 C554 478 554 478 557.5 478 C561 478 561 478 561 487.5 C561 497 561 497 564 497 C567 497 567 497 567 503.5 C567 510 567 510 570 510 C572.7 510 573 510.2 573 513.5 C573 516.8 573.1 517 576.5 517 C580 517 580 517 580 523.5 C580 530 580 530 583 530 C585.6 530 586 530.3 586 533 C586 535.7 586.2 536 589.5 536 C592.8 536 593 536.1 593 539.5 C593 542.7 593.2 543 596 543 C599 543 599 543 599 552.5 C599 562 599 562 602.5 562 C606 562 606 562 606 572 C606 582 606 582 609 582 C612 582 612 582 612 591.5 C612 601 612 601 615.5 601 C619 601 619 601 619 637 C619 673 619 673 615.5 673 C612 673 612 673 612 689 C612 705 612 705 609 705 C606 705 606 705 606 715 C606 725 606 725 602.5 725 C599 725 599 725 599 734.5 C599 744 599 744 596 744 C593 744 593 744 593 750.5 C593 757 593 757 589.5 757 C586 757 586 757 586 763.5 C586 770 586 770 583 770 C580.3 770 580 770.3 580 773 C580 775.7 579.7 776 576.5 776 C573.1 776 573 776.1 573 779.5 C573 782.7 572.7 783 570 783 C567.3 783 567 783.3 567 786 C567 788.6 566.6 789 564 789 C561.2 789 561 789.2 561 792.5 C561 796 561 796 554.5 796 C548 796 548 796 548 799 C548 802 548 802 541.5 802 C535 802 535 802 535 737.5 "/>
  <path d="M476 663 C476 660 476 660 469.5 660 C463 660 463 660 463 656.5 C463 653.2 462.7 653 460 653 C457.3 653 457 652.6 457 650 C457 647.2 456.7 647 453.5 647 C450 647 450 647 450 640.5 C450 634 450 634 447 634 C444 634 444 634 444 585 C444 536 444 536 447 536 C450 536 450 536 450 529.5 C450 523 450 523 453.5 523 C456.7 523 457 522.7 457 520 C457 517.3 457.3 517 460 517 C462.6 517 463 517.3 463 520 C463 522.7 463.2 523 466.5 523 C470 523 470 523 470 536 C470 549 470 549 473 549 C476 549 476 549 476 562 C476 575 476 575 479.5 575 C483 575 483 575 483 585 C483 595 483 595 486 595 C489 595 489 595 489 604.5 C489 614 489 614 492.5 614 C496 614 496 614 496 624 C496 634 496 634 499 634 C502 634 502 634 502 640.5 C502 647 502 647 505.5 647 C509 647 509 647 509 656.5 C509 666 509 666 492.5 666 C476 666 476 666 476 663 "/>
  <path d="M950 650 C950 647.2 949.7 647 946.5 647 C943.1 647 943 646.8 943 643.5 C943 640.2 942.7 640 940 640 C937.3 640 937 639.6 937 637 C937 634.2 936.7 634 933.5 634 C930.1 634 930 633.8 930 630.5 C930 627.2 929.7 627 927 627 C924.3 627 924 626.6 924 624 C924 621 924 621 917.5 621 C911 621 911 621 911 617.5 C911 614 911 614 904.5 614 C898 614 898 614 898 611 C898 608 898 608 888 608 C878 608 878 608 878 604.5 C878 601 878 601 758 601 C638 601 638 601 638 598 C638 595.3 637.6 595 635 595 C632.2 595 632 594.7 632 591.5 C632 588.1 631.8 588 628.5 588 C625 588 625 588 625 578.5 C625 569 625 569 628.5 569 C631.7 569 632 569.2 632 572 C632 575 632 575 638.5 575 C645 575 645 575 645 578.5 C645 582 645 582 654.5 582 C664 582 664 582 664 585 C664 588 664 588 709.5 588 C755 588 755 588 755 585 C755 582 755 582 765 582 C775 582 775 582 775 578.5 C775 575 775 575 781.5 575 C788 575 788 575 788 572 C788 569.3 788.3 569 791 569 C793.7 569 794 568.7 794 565.5 C794 562 794 562 800.5 562 C807 562 807 562 807 559 C807 556.2 807.2 556 810.5 556 C813.8 556 814 555.8 814 552.5 C814 549.2 814.2 549 817 549 C819.6 549 820 548.6 820 546 C820 543.3 820.3 543 823 543 C825.7 543 826 542.7 826 539.5 C826 536.1 826.1 536 829.5 536 C832.7 536 833 535.7 833 533 C833 530.3 833.3 530 836 530 C839 530 839 530 839 523.5 C839 517 839 517 842.5 517 C845.8 517 846 516.8 846 513.5 C846 510.2 846.2 510 849 510 C851.6 510 852 509.6 852 507 C852 504 852 504 901 504 C950 504 950 504 950 507 C950 509.6 950.3 510 953 510 C955.7 510 956 510.2 956 513.5 C956 516.8 956.1 517 959.5 517 C962.7 517 963 517.2 963 520 C963 522.6 963.3 523 966 523 C969 523 969 523 969 529.5 C969 536 969 536 972.5 536 C976 536 976 536 976 585 C976 634 976 634 972.5 634 C969 634 969 634 969 640.5 C969 647 969 647 966 647 C963.3 647 963 647.3 963 650 C963 653 963 653 956.5 653 C950 653 950 653 950 650 "/>
  <path d="M671 572 C671 569 671 569 661 569 C651 569 651 569 651 565.5 C651 562 651 562 644.5 562 C638 562 638 562 638 559 C638 556 638 556 631.5 556 C625 556 625 556 625 552.5 C625 549.2 624.7 549 622 549 C619.3 549 619 548.6 619 546 C619 543.2 618.7 543 615.5 543 C612.1 543 612 542.8 612 539.5 C612 536.2 611.7 536 609 536 C606.3 536 606 535.6 606 533 C606 530.2 605.7 530 602.5 530 C599.1 530 599 529.8 599 526.5 C599 523.2 598.7 523 596 523 C593.3 523 593 522.6 593 520 C593 517.2 592.7 517 589.5 517 C586 517 586 517 586 510.5 C586 504 586 504 583 504 C580 504 580 504 580 497.5 C580 491 580 491 576.5 491 C573 491 573 491 573 484.5 C573 478 573 478 570 478 C567 478 567 478 567 458.5 C567 439 567 439 564 439 C561 439 561 439 561 429.5 C561 420 561 420 564 420 C567 420 567 420 567 403.5 C567 387 567 387 570 387 C573 387 573 387 573 377.5 C573 368 573 368 576.5 368 C580 368 580 368 580 361.5 C580 355 580 355 583 355 C585.7 355 586 354.7 586 351.5 C586 348.1 586.1 348 589.5 348 C592.7 348 593 347.7 593 345 C593 342.3 593.3 342 596 342 C599 342 599 342 599 335.5 C599 329 599 329 602.5 329 C605.8 329 606 328.8 606 325.5 C606 322 606 322 612.5 322 C619 322 619 322 619 319 C619 316.3 619.3 316 622 316 C624.7 316 625 315.7 625 312.5 C625 309.1 625.1 309 628.5 309 C631.7 309 632 308.7 632 306 C632 303 632 303 638.5 303 C645 303 645 303 645 299.5 C645 296 645 296 654.5 296 C664 296 664 296 664 293 C664 290 664 290 674 290 C684 290 684 290 684 286.5 C684 283 684 283 710 283 C736 283 736 283 736 286.5 C736 290 736 290 745.5 290 C755 290 755 290 755 293 C755 296 755 296 765 296 C775 296 775 296 775 299.5 C775 303 775 303 781.5 303 C788 303 788 303 788 306 C788 308.6 788.3 309 791 309 C793.7 309 794 309.2 794 312.5 C794 316 794 316 800.5 316 C807 316 807 316 807 319 C807 321.7 807.2 322 810.5 322 C813.8 322 814 322.1 814 325.5 C814 328.7 814.2 329 817 329 C820 329 820 329 820 335.5 C820 342 820 342 823 342 C825.6 342 826 342.3 826 345 C826 347.7 826.2 348 829.5 348 C832.8 348 833 348.1 833 351.5 C833 354.7 833.2 355 836 355 C839 355 839 355 839 361.5 C839 368 839 368 842.5 368 C846 368 846 368 846 377.5 C846 387 846 387 849 387 C852 387 852 387 852 403.5 C852 420 852 420 855.5 420 C859 420 859 420 859 433 C859 446 859 446 855.5 446 C852 446 852 446 852 462 C852 478 852 478 849 478 C846 478 846 478 846 484.5 C846 491 846 491 842.5 491 C839 491 839 491 839 497.5 C839 504 839 504 836 504 C833 504 833 504 833 510.5 C833 517 833 517 829.5 517 C826.2 517 826 517.2 826 520 C826 522.6 825.6 523 823 523 C820.2 523 820 523.2 820 526.5 C820 529.7 819.7 530 817 530 C814.3 530 814 530.3 814 533 C814 535.7 813.7 536 810.5 536 C807.1 536 807 536.1 807 539.5 C807 542.7 806.7 543 804 543 C801.3 543 801 543.3 801 546 C801 548.7 800.7 549 797.5 549 C794.1 549 794 549.1 794 552.5 C794 556 794 556 787.5 556 C781 556 781 556 781 559 C781 562 781 562 774.5 562 C768 562 768 562 768 565.5 C768 569 768 569 761.5 569 C755 569 755 569 755 572 C755 575 755 575 713 575 C671 575 671 575 671 572 M710 539.5 C710 536.1 709.8 536 706.5 536 C703.2 536 703 535.7 703 533 C703 530.3 702.6 530 700 530 C697 530 697 530 697 513.5 C697 497 697 497 700 497 C703 497 703 497 703 491 C703 485 703 485 706.5 485 C709.8 485 710 484.8 710 481.5 C710 478 710 478 716.5 478 C723 478 723 478 723 475 C723 472.3 723.3 472 726 472 C728.7 472 729 471.7 729 468.5 C729 465 729 465 739 465 C749 465 749 465 749 462 C749 459 749 459 771.5 459 C794 459 794 459 794 462 C794 465 794 465 800.5 465 C807 465 807 465 807 471.5 C807 478 807 478 810.5 478 C814 478 814 478 814 487.5 C814 497 814 497 810.5 497 C807 497 807 497 807 503.5 C807 510 807 510 804 510 C801.2 510 801 510.2 801 513.5 C801 516.8 800.8 517 797.5 517 C794.2 517 794 517.2 794 520 C794 522.6 793.6 523 791 523 C788.2 523 788 523.2 788 526.5 C788 529.8 787.8 530 784.5 530 C781.2 530 781 530.2 781 533 C781 536 781 536 774.5 536 C768 536 768 536 768 539.5 C768 543 768 543 739 543 C710 543 710 543 710 539.5 "/>
  <path d="M917 260.5 C917 257.2 916.7 257 914 257 C911 257 911 257 911 247.5 C911 238 911 238 914 238 C916.6 238 917 237.6 917 235 C917 232.2 917.2 232 920.5 232 C923.8 232 924 231.8 924 228.5 C924 225 924 225 933.5 225 C943 225 943 225 943 228.5 C943 232 943 232 949.5 232 C956 232 956 232 956 241.5 C956 251 956 251 953 251 C950.3 251 950 251.3 950 254 C950 256.7 949.7 257 946.5 257 C943.1 257 943 257.1 943 260.5 C943 264 943 264 930 264 C917 264 917 264 917 260.5 "/>
  <path d="M820 254 C820 251.3 819.6 251 817 251 C814 251 814 251 814 238 C814 225 814 225 817 225 C819.6 225 820 224.6 820 222 C820 219.3 820.3 219 823 219 C825.7 219 826 218.7 826 215.5 C826 212 826 212 832.5 212 C839 212 839 212 839 215.5 C839 218.8 839.1 219 842.5 219 C845.7 219 846 219.2 846 222 C846 224.6 846.3 225 849 225 C852 225 852 225 852 234.5 C852 244 852 244 849 244 C846.2 244 846 244.2 846 247.5 C846 251 846 251 839.5 251 C833 251 833 251 833 254 C833 257 833 257 826.5 257 C820 257 820 257 820 254 "/>
  <path d="M930 202.5 C930 199.2 929.7 199 927 199 C924 199 924 199 924 189.5 C924 180 924 180 927 180 C930 180 930 180 930 170 C930 160 930 160 933.5 160 C936.7 160 937 159.7 937 157 C937 154.3 937.3 154 940 154 C942.7 154 943 153.7 943 150.5 C943 147.1 943.1 147 946.5 147 C949.7 147 950 146.7 950 144 C950 141 950 141 956.5 141 C963 141 963 141 963 137.5 C963 134 963 134 972.5 134 C982 134 982 134 982 131 C982 128 982 128 988.5 128 C995 128 995 128 995 124.5 C995 121.1 995.1 121 998.5 121 C1002 121 1002 121 1002 101.5 C1002 82 1002 82 998.5 82 C995.2 82 995 81.7 995 79 C995 76 995 76 982 76 C969 76 969 76 969 79 C969 82 969 82 962.5 82 C956 82 956 82 956 88.5 C956 95 956 95 953 95 C950.2 95 950 95.2 950 98.5 C950 102 950 102 940 102 C930 102 930 102 930 98.5 C930 95.2 929.7 95 927 95 C924 95 924 95 924 85.5 C924 76 924 76 927 76 C929.7 76 930 75.7 930 72.5 C930 69.1 930.1 69 933.5 69 C936.7 69 937 68.7 937 66 C937 63.3 937.3 63 940 63 C942.7 63 943 62.7 943 59.5 C943 56 943 56 949.5 56 C956 56 956 56 956 53 C956 50 956 50 985.5 50 C1015 50 1015 50 1015 53 C1015 55.6 1015.3 56 1018 56 C1020.7 56 1021 56.2 1021 59.5 C1021 62.8 1021.1 63 1024.5 63 C1027.7 63 1028 63.2 1028 66 C1028 68.6 1028.3 69 1031 69 C1034 69 1034 69 1034 98.5 C1034 128 1034 128 1031 128 C1028 128 1028 128 1028 134.5 C1028 141 1028 141 1024.5 141 C1021.2 141 1021 141.2 1021 144 C1021 146.6 1020.6 147 1018 147 C1015.2 147 1015 147.2 1015 150.5 C1015 154 1015 154 1005 154 C995 154 995 154 995 157 C995 160 995 160 988.5 160 C982 160 982 160 982 163.5 C982 167 982 167 972.5 167 C963 167 963 167 963 176.5 C963 186 963 186 959.5 186 C956 186 956 186 956 192.5 C956 199 956 199 953 199 C950.2 199 950 199.2 950 202.5 C950 206 950 206 940 206 C930 206 930 206 930 202.5 "/>
  <path d="M833 189.5 C833 186.1 832.8 186 829.5 186 C826 186 826 186 826 160 C826 134 826 134 829.5 134 C833 134 833 134 833 111.5 C833 89 833 89 836 89 C839 89 839 89 839 76 C839 63 839 63 842.5 63 C845.8 63 846 62.8 846 59.5 C846 56.2 846.2 56 849 56 C851.6 56 852 55.6 852 53 C852 50 852 50 858.5 50 C865 50 865 50 865 53 C865 55.7 865.2 56 868.5 56 C871.8 56 872 56.1 872 59.5 C872 62.7 872.2 63 875 63 C877.6 63 878 63.3 878 66 C878 68.6 877.6 69 875 69 C872 69 872 69 872 85.5 C872 102 872 102 868.5 102 C865 102 865 102 865 115 C865 128 865 128 862 128 C859 128 859 128 859 141 C859 154 859 154 855.5 154 C852 154 852 154 852 173.5 C852 193 852 193 842.5 193 C833 193 833 193 833 189.5 "/>
 </g>
 <g fill="#ffffff" fill-rule="evenodd">
  <path d="M0 1040.5 C0 0 0 0 641.5 0 C1283 0 1283 0 1283 1040.5 C1283 2081 1283 2081 641.5 2081 C0 2081 0 2081 0 1040.5 M561 2054 C561 2028 561 2028 564 2028 C567 2028 567 2028 567 2002.5 C567 1977 567 1977 570 1977 C573 1977 573 1977 573 1970.5 C573 1964 573 1964 579.5 1964 C586 1964 586 1964 586 1967 C586 1969.7 586.2 1970 589.5 1970 C593 1970 593 1970 593 1980 C593 1990 593 1990 589.5 1990 C586 1990 586 1990 586 2012.5 C586 2035 586 2035 583 2035 C580 2035 580 2035 580 2048 C580 2061 580 2061 586.5 2061 C593 2061 593 2061 593 2057.5 C593 2054 593 2054 619 2054 C645 2054 645 2054 645 2064 C645 2074 645 2074 615.5 2074 C586 2074 586 2074 586 2077 C586 2080 586 2080 573.5 2080 C561 2080 561 2080 561 2054 M671 2077 C671 2074.2 670.7 2074 667.5 2074 C664.1 2074 664 2073.8 664 2070.5 C664 2067.2 663.7 2067 661 2067 C658 2067 658 2067 658 2047.5 C658 2028 658 2028 661 2028 C664 2028 664 2028 664 2021.5 C664 2015 664 2015 667.5 2015 C670.7 2015 671 2014.7 671 2012 C671 2009.3 671.3 2009 674 2009 C676.6 2009 677 2008.6 677 2006 C677 2003.2 677.2 2003 680.5 2003 C683.8 2003 684 2002.8 684 1999.5 C684 1996 684 1996 700 1996 C716 1996 716 1996 716 1999.5 C716 2002.8 716.1 2003 719.5 2003 C722.7 2003 723 2003.2 723 2006 C723 2008.6 723.3 2009 726 2009 C729 2009 729 2009 729 2028.5 C729 2048 729 2048 726 2048 C723 2048 723 2048 723 2054.5 C723 2061 723 2061 719.5 2061 C716.2 2061 716 2061.2 716 2064 C716 2066.6 715.6 2067 713 2067 C710.2 2067 710 2067.2 710 2070.5 C710 2074 710 2074 703.5 2074 C697 2074 697 2074 697 2077 C697 2080 697 2080 684 2080 C671 2080 671 2080 671 2077 M677 2044.5 C677 2028 677 2028 680.5 2028 C683.7 2028 684 2027.7 684 2025 C684 2022.3 684.3 2022 687 2022 C689.7 2022 690 2021.7 690 2018.5 C690 2015.1 690.1 2015 693.5 2015 C696.7 2015 697 2014.7 697 2012 C697 2009.3 697.3 2009 700 2009 C702.6 2009 703 2009.3 703 2012 C703 2014.7 703.2 2015 706.5 2015 C710 2015 710 2015 710 2031.5 C710 2048 710 2048 706.5 2048 C703.2 2048 703 2048.2 703 2051 C703 2053.6 702.6 2054 700 2054 C697.2 2054 697 2054.2 697 2057.5 C697 2061 697 2061 687 2061 C677 2061 677 2061 677 2044.5 M736 2073.5 C736 2067 736 2067 739 2067 C741.6 2067 742 2066.6 742 2064 C742 2061 742 2061 748.5 2061 C755 2061 755 2061 755 2064 C755 2067 755 2067 761.5 2067 C768 2067 768 2067 768 2064 C768 2061 768 2061 774.5 2061 C781 2061 781 2061 781 2057.5 C781 2054.2 780.7 2054 778 2054 C775.3 2054 775 2053.6 775 2051 C775 2048 775 2048 768.5 2048 C762 2048 762 2048 762 2044.5 C762 2041 762 2041 755.5 2041 C749 2041 749 2041 749 2034.5 C749 2028 749 2028 745.5 2028 C742 2028 742 2028 742 2021.5 C742 2015 742 2015 745.5 2015 C749 2015 749 2015 749 2009 C749 2003 749 2003 752 2003 C754.7 2003 755 2002.7 755 1999.5 C755 1996 755 1996 761.5 1996 C768 1996 768 1996 768 1993 C768 1990 768 1990 784.5 1990 C801 1990 801 1990 801 1999.5 C801 2009 801 2009 784.5 2009 C768 2009 768 2009 768 2012 C768 2014.6 767.6 2015 765 2015 C762.2 2015 762 2015.2 762 2018.5 C762 2021.7 762.2 2022 765 2022 C767.6 2022 768 2022.3 768 2025 C768 2027.7 768.2 2028 771.5 2028 C774.8 2028 775 2028.1 775 2031.5 C775 2035 775 2035 781.5 2035 C788 2035 788 2035 788 2038 C788 2040.6 788.3 2041 791 2041 C793.7 2041 794 2041.2 794 2044.5 C794 2047.8 794.1 2048 797.5 2048 C801 2048 801 2048 801 2057.5 C801 2067 801 2067 797.5 2067 C794.1 2067 794 2067.1 794 2070.5 C794 2074 794 2074 787.5 2074 C781 2074 781 2074 781 2077 C781 2080 781 2080 758.5 2080 C736 2080 736 2080 736 2073.5 M826 2077 C826 2074.3 825.6 2074 823 2074 C820.2 2074 820 2073.7 820 2070.5 C820 2067.2 819.7 2067 817 2067 C814 2067 814 2067 814 2057.5 C814 2048 814 2048 817 2048 C820 2048 820 2048 820 2031.5 C820 2015 820 2015 813.5 2015 C807 2015 807 2015 807 2009 C807 2003 807 2003 816.5 2003 C826 2003 826 2003 826 1999.5 C826 1996.1 826.1 1996 829.5 1996 C833 1996 833 1996 833 1983 C833 1970 833 1970 836 1970 C838.6 1970 839 1969.6 839 1967 C839 1964.2 839.2 1964 842.5 1964 C845.7 1964 846 1964.2 846 1967 C846 1969.6 846.3 1970 849 1970 C852 1970 852 1970 852 1983 C852 1996 852 1996 865 1996 C878 1996 878 1996 878 2002.5 C878 2009 878 2009 871.5 2009 C865 2009 865 2009 865 2012 C865 2015 865 2015 852 2015 C839 2015 839 2015 839 2031.5 C839 2048 839 2048 836 2048 C833 2048 833 2048 833 2054.5 C833 2061 833 2061 842.5 2061 C852 2061 852 2061 852 2057.5 C852 2054 852 2054 862 2054 C872 2054 872 2054 872 2057.5 C872 2060.8 871.8 2061 868.5 2061 C865.2 2061 865 2061.2 865 2064 C865 2066.6 864.6 2067 862 2067 C859.2 2067 859 2067.2 859 2070.5 C859 2073.8 858.8 2074 855.5 2074 C852.2 2074 852 2074.2 852 2077 C852 2080 852 2080 839 2080 C826 2080 826 2080 826 2077 M606 1824 C606 1821 606 1821 593 1821 C580 1821 580 1821 580 1817.5 C580 1814 580 1814 573.5 1814 C567 1814 567 1814 567 1811 C567 1808.3 566.6 1808 564 1808 C561.2 1808 561 1807.7 561 1804.5 C561 1801.1 560.8 1801 557.5 1801 C554.2 1801 554 1800.7 554 1798 C554 1795.3 553.6 1795 551 1795 C548 1795 548 1795 548 1788.5 C548 1782 548 1782 544.5 1782 C541 1782 541 1782 541 1775.5 C541 1769 541 1769 538 1769 C535 1769 535 1769 535 1302 C535 835 535 835 544.5 835 C554 835 554 835 554 831.5 C554 828 554 828 560.5 828 C567 828 567 828 567 825 C567 822 567 822 573.5 822 C580 822 580 822 580 818.5 C580 815.2 580.2 815 583 815 C585.6 815 586 814.6 586 812 C586 809.2 586.2 809 589.5 809 C592.8 809 593 808.8 593 805.5 C593 802.2 593.2 802 596 802 C598.6 802 599 801.6 599 799 C599 796.2 599.2 796 602.5 796 C606 796 606 796 606 789.5 C606 783 606 783 609 783 C611.7 783 612 782.7 612 779.5 C612 776.1 612.1 776 615.5 776 C619 776 619 776 619 769.5 C619 763 619 763 622 763 C625 763 625 763 625 753.5 C625 744 625 744 628.5 744 C632 744 632 744 632 737.5 C632 731 632 731 635 731 C638 731 638 731 638 718 C638 705 638 705 641.5 705 C645 705 645 705 645 689 C645 673 645 673 648 673 C651 673 651 673 651 643.5 C651 614 651 614 726 614 C801 614 801 614 801 627 C801 640 801 640 804 640 C807 640 807 640 807 669.5 C807 699 807 699 810.5 699 C814 699 814 699 814 715 C814 731 814 731 817 731 C820 731 820 731 820 744 C820 757 820 757 823 757 C826 757 826 757 826 766.5 C826 776 826 776 829.5 776 C833 776 833 776 833 786 C833 796 833 796 836 796 C839 796 839 796 839 802.5 C839 809 839 809 842.5 809 C846 809 846 809 846 815.5 C846 822 846 822 849 822 C851.6 822 852 822.3 852 825 C852 827.7 852.2 828 855.5 828 C859 828 859 828 859 834.5 C859 841 859 841 862 841 C864.7 841 865 841.2 865 844.5 C865 847.8 865.1 848 868.5 848 C871.7 848 872 848.2 872 851 C872 853.6 872.3 854 875 854 C877.7 854 878 854.2 878 857.5 C878 860.8 878.1 861 881.5 861 C885 861 885 861 885 1315 C885 1769 885 1769 881.5 1769 C878 1769 878 1769 878 1775.5 C878 1782 878 1782 875 1782 C872 1782 872 1782 872 1788.5 C872 1795 872 1795 868.5 1795 C865.2 1795 865 1795.2 865 1798 C865 1800.6 864.6 1801 862 1801 C859.2 1801 859 1801.2 859 1804.5 C859 1807.8 858.8 1808 855.5 1808 C852.2 1808 852 1808.2 852 1811 C852 1814 852 1814 845.5 1814 C839 1814 839 1814 839 1817.5 C839 1821 839 1821 826.5 1821 C814 1821 814 1821 814 1824 C814 1827 814 1827 804 1827 C794 1827 794 1827 794 1824 C794 1821 794 1821 784.5 1821 C775 1821 775 1821 775 1817.5 C775 1814 775 1814 768.5 1814 C762 1814 762 1814 762 1811 C762 1808 762 1808 755.5 1808 C749 1808 749 1808 749 1804.5 C749 1801.1 748.8 1801 745.5 1801 C742 1801 742 1801 742 1794.5 C742 1788 742 1788 739 1788 C736.3 1788 736 1787.6 736 1785 C736 1782.2 735.7 1782 732.5 1782 C729 1782 729 1782 729 1772 C729 1762 729 1762 726 1762 C723 1762 723 1762 723 1460.5 C723 1159 723 1159 710 1159 C697 1159 697 1159 697 1460.5 C697 1762 697 1762 693.5 1762 C690 1762 690 1762 690 1772 C690 1782 690 1782 687 1782 C684.3 1782 684 1782.3 684 1785 C684 1787.7 683.7 1788 680.5 1788 C677 1788 677 1788 677 1794.5 C677 1801 677 1801 674 1801 C671.2 1801 671 1801.2 671 1804.5 C671 1808 671 1808 664.5 1808 C658 1808 658 1808 658 1811 C658 1813.7 657.7 1814 654.5 1814 C651.1 1814 651 1814.1 651 1817.5 C651 1821 651 1821 638 1821 C625 1821 625 1821 625 1824 C625 1827 625 1827 615.5 1827 C606 1827 606 1827 606 1824 M502 1285.5 C502 1282 502 1282 495.5 1282 C489 1282 489 1282 489 1279 C489 1276.3 488.6 1276 486 1276 C483.2 1276 483 1275.7 483 1272.5 C483 1269.1 482.8 1269 479.5 1269 C476 1269 476 1269 476 1262.5 C476 1256 476 1256 473 1256 C470 1256 470 1256 470 990.5 C470 725 470 725 473 725 C476 725 476 725 476 718.5 C476 712 476 712 479.5 712 C482.8 712 483 711.8 483 708.5 C483 705.2 483.2 705 486 705 C488.6 705 489 704.6 489 702 C489 699 489 699 495.5 699 C502 699 502 699 502 695.5 C502 692 502 692 508.5 692 C515 692 515 692 515 695.5 C515 698.8 515.1 699 518.5 699 C522 699 522 699 522 712 C522 725 522 725 518.5 725 C515.2 725 515 725.2 515 728 C515 730.7 515.2 731 518.5 731 C522 731 522 731 522 1010 C522 1289 522 1289 512 1289 C502 1289 502 1289 502 1285.5 M904 1091 C904 893 904 893 907.5 893 C911 893 911 893 911 922.5 C911 952 911 952 914 952 C917 952 917 952 917 1081.5 C917 1211 917 1211 920.5 1211 C924 1211 924 1211 924 1217.5 C924 1224 924 1224 927 1224 C929.7 1224 930 1224.2 930 1227.5 C930 1230.8 930.1 1231 933.5 1231 C936.7 1231 937 1231.2 937 1234 C937 1236.6 937.3 1237 940 1237 C942.7 1237 943 1237.2 943 1240.5 C943 1243.8 943.1 1244 946.5 1244 C950 1244 950 1244 950 1250 C950 1256 950 1256 946.5 1256 C943 1256 943 1256 943 1262.5 C943 1269 943 1269 940 1269 C937.2 1269 937 1269.2 937 1272.5 C937 1275.8 936.8 1276 933.5 1276 C930.2 1276 930 1276.2 930 1279 C930 1282 930 1282 923.5 1282 C917 1282 917 1282 917 1285.5 C917 1289 917 1289 910.5 1289 C904 1289 904 1289 904 1091 M969 1234 C969 1231 969 1231 962.5 1231 C956 1231 956 1231 956 1227.5 C956 1224.2 955.7 1224 953 1224 C950.3 1224 950 1223.6 950 1221 C950 1218.2 949.7 1218 946.5 1218 C943.1 1218 943 1217.8 943 1214.5 C943 1211.2 942.7 1211 940 1211 C937 1211 937 1211 937 1204.5 C937 1198 937 1198 933.5 1198 C930 1198 930 1198 930 1156 C930 1114 930 1114 933.5 1114 C937 1114 937 1114 937 1065 C937 1016 937 1016 933.5 1016 C930 1016 930 1016 930 967.5 C930 919 930 919 927 919 C924 919 924 919 924 899.5 C924 880 924 880 920.5 880 C917 880 917 880 917 864 C917 848 917 848 914 848 C911 848 911 848 911 835 C911 822 911 822 907.5 822 C904 822 904 822 904 812 C904 802 904 802 901 802 C898 802 898 802 898 792.5 C898 783 898 783 894.5 783 C891 783 891 783 891 776.5 C891 770 891 770 888 770 C885 770 885 770 885 792.5 C885 815 885 815 881.5 815 C878 815 878 815 878 808.5 C878 802 878 802 875 802 C872 802 872 802 872 795.5 C872 789 872 789 868.5 789 C865 789 865 789 865 782.5 C865 776 865 776 862 776 C859 776 859 776 859 766.5 C859 757 859 757 855.5 757 C852 757 852 757 852 744 C852 731 852 731 849 731 C846 731 846 731 846 718 C846 705 846 705 842.5 705 C839 705 839 705 839 679 C839 653 839 653 836 653 C833 653 833 653 833 633.5 C833 614 833 614 852.5 614 C872 614 872 614 872 617.5 C872 621 872 621 881.5 621 C891 621 891 621 891 624 C891 627 891 627 897.5 627 C904 627 904 627 904 630.5 C904 633.8 904.1 634 907.5 634 C910.7 634 911 634.2 911 637 C911 640 911 640 917.5 640 C924 640 924 640 924 643.5 C924 646.7 924.2 647 927 647 C929.6 647 930 647.3 930 650 C930 652.7 930.2 653 933.5 653 C936.8 653 937 653.1 937 656.5 C937 659.7 937.2 660 940 660 C942.6 660 943 660.3 943 663 C943 665.7 943.2 666 946.5 666 C949.8 666 950 666.1 950 669.5 C950 672.7 950.2 673 953 673 C956 673 956 673 956 679.5 C956 686 956 686 959.5 686 C962.7 686 963 686.2 963 689 C963 691.6 963.3 692 966 692 C969 692 969 692 969 698.5 C969 705 969 705 972.5 705 C976 705 976 705 976 711.5 C976 718 976 718 979 718 C982 718 982 718 982 724.5 C982 731 982 731 985.5 731 C989 731 989 731 989 737.5 C989 744 989 744 992 744 C995 744 995 744 995 750.5 C995 757 995 757 998.5 757 C1002 757 1002 757 1002 766.5 C1002 776 1002 776 1005 776 C1008 776 1008 776 1008 789 C1008 802 1008 802 1011.5 802 C1015 802 1015 802 1015 815 C1015 828 1015 828 1018 828 C1021 828 1021 828 1021 844.5 C1021 861 1021 861 1024.5 861 C1028 861 1028 861 1028 883.5 C1028 906 1028 906 1031 906 C1034 906 1034 906 1034 945 C1034 984 1034 984 1037.5 984 C1041 984 1041 984 1041 1068.5 C1041 1153 1041 1153 1037.5 1153 C1034 1153 1034 1153 1034 1179 C1034 1205 1034 1205 1031 1205 C1028 1205 1028 1205 1028 1211.5 C1028 1218 1028 1218 1024.5 1218 C1021.2 1218 1021 1218.2 1021 1221 C1021 1223.6 1020.6 1224 1018 1224 C1015.2 1224 1015 1224.2 1015 1227.5 C1015 1231 1015 1231 1005 1231 C995 1231 995 1231 995 1234 C995 1237 995 1237 982 1237 C969 1237 969 1237 969 1234 M535 737.5 C535 673 535 673 531.5 673 C528 673 528 673 528 663 C528 653 528 653 525 653 C522 653 522 653 522 646.5 C522 640 522 640 518.5 640 C515 640 515 640 515 630.5 C515 621 515 621 512 621 C509 621 509 621 509 611 C509 601 509 601 505.5 601 C502 601 502 601 502 591.5 C502 582 502 582 499 582 C496 582 496 582 496 572 C496 562 496 562 492.5 562 C489 562 489 562 489 549 C489 536 489 536 486 536 C483 536 483 536 483 523 C483 510 483 510 479.5 510 C476 510 476 510 476 491 C476 472 476 472 473 472 C470 472 470 472 470 407 C470 342 470 342 473 342 C476 342 476 342 476 329 C476 316 476 316 479.5 316 C483 316 483 316 483 309.5 C483 303 483 303 486 303 C489 303 489 303 489 296.5 C489 290 489 290 492.5 290 C495.8 290 496 289.8 496 286.5 C496 283.2 496.2 283 499 283 C501.6 283 502 282.6 502 280 C502 277.2 502.2 277 505.5 277 C509 277 509 277 509 270.5 C509 264 509 264 515.5 264 C522 264 522 264 522 260.5 C522 257.2 522.2 257 525 257 C527.6 257 528 256.6 528 254 C528 251.2 528.2 251 531.5 251 C534.8 251 535 250.8 535 247.5 C535 244 535 244 541.5 244 C548 244 548 244 548 241 C548 238 548 238 557.5 238 C567 238 567 238 567 235 C567 232 567 232 586.5 232 C606 232 606 232 606 228.5 C606 225 606 225 619 225 C632 225 632 225 632 228.5 C632 232 632 232 651.5 232 C671 232 671 232 671 235 C671 238 671 238 680.5 238 C690 238 690 238 690 241 C690 244 690 244 696.5 244 C703 244 703 244 703 247.5 C703 250.8 703.1 251 706.5 251 C710 251 710 251 710 257.5 C710 264 710 264 713 264 C715.6 264 716 264.3 716 267 C716 270 716 270 700 270 C684 270 684 270 684 273.5 C684 277 684 277 671 277 C658 277 658 277 658 280 C658 283 658 283 651.5 283 C645 283 645 283 645 286.5 C645 290 645 290 638.5 290 C632 290 632 290 632 293 C632 296 632 296 625.5 296 C619 296 619 296 619 299.5 C619 302.8 618.8 303 615.5 303 C612.2 303 612 303.2 612 306 C612 308.6 611.6 309 609 309 C606.2 309 606 309.2 606 312.5 C606 315.8 605.8 316 602.5 316 C599.2 316 599 316.2 599 319 C599 321.6 598.6 322 596 322 C593.2 322 593 322.2 593 325.5 C593 328.8 592.8 329 589.5 329 C586.2 329 586 329.2 586 332 C586 334.6 585.6 335 583 335 C580.2 335 580 335.2 580 338.5 C580 341.8 579.8 342 576.5 342 C573 342 573 342 573 348.5 C573 355 573 355 570 355 C567 355 567 355 567 361.5 C567 368 567 368 564 368 C561 368 561 368 561 377.5 C561 387 561 387 557.5 387 C554 387 554 387 554 403.5 C554 420 554 420 551 420 C548 420 548 420 548 433 C548 446 548 446 551 446 C554 446 554 446 554 462 C554 478 554 478 557.5 478 C561 478 561 478 561 487.5 C561 497 561 497 564 497 C567 497 567 497 567 503.5 C567 510 567 510 570 510 C572.7 510 573 510.2 573 513.5 C573 516.8 573.1 517 576.5 517 C580 517 580 517 580 523.5 C580 530 580 530 583 530 C585.6 530 586 530.3 586 533 C586 535.7 586.2 536 589.5 536 C592.8 536 593 536.1 593 539.5 C593 542.7 593.2 543 596 543 C599 543 599 543 599 552.5 C599 562 599 562 602.5 562 C606 562 606 562 606 572 C606 582 606 582 609 582 C612 582 612 582 612 591.5 C612 601 612 601 615.5 601 C619 601 619 601 619 637 C619 673 619 673 615.5 673 C612 673 612 673 612 689 C612 705 612 705 609 705 C606 705 606 705 606 715 C606 725 606 725 602.5 725 C599 725 599 725 599 734.5 C599 744 599 744 596 744 C593 744 593 744 593 750.5 C593 757 593 757 589.5 757 C586 757 586 757 586 763.5 C586 770 586 770 583 770 C580.3 770 580 770.3 580 773 C580 775.7 579.7 776 576.5 776 C573.1 776 573 776.1 573 779.5 C573 782.7 572.7 783 570 783 C567.3 783 567 783.3 567 786 C567 788.6 566.6 789 564 789 C561.2 789 561 789.2 561 792.5 C561 796 561 796 554.5 796 C548 796 548 796 548 799 C548 802 548 802 541.5 802 C535 802 535 802 535 737.5 M476 663 C476 660 476 660 469.5 660 C463 660 463 660 463 656.5 C463 653.2 462.7 653 460 653 C457.3 653 457 652.6 457 650 C457 647.2 456.7 647 453.5 647 C450 647 450 647 450 640.5 C450 634 450 634 447 634 C444 634 444 634 444 585 C444 536 444 536 447 536 C450 536 450 536 450 529.5 C450 523 450 523 453.5 523 C456.7 523 457 522.7 457 520 C457 517.3 457.3 517 460 517 C462.6 517 463 517.3 463 520 C463 522.7 463.2 523 466.5 523 C470 523 470 523 470 536 C470 549 470 549 473 549 C476 549 476 549 476 562 C476 575 476 575 479.5 575 C483 575 483 575 483 585 C483 595 483 595 486 595 C489 595 489 595 489 604.5 C489 614 489 614 492.5 614 C496 614 496 614 496 624 C496 634 496 634 499 634 C502 634 502 634 502 640.5 C502 647 502 647 505.5 647 C509 647 509 647 509 656.5 C509 666 509 666 492.5 666 C476 666 476 666 476 663 M950 650 C950 647.2 949.7 647 946.5 647 C943.1 647 943 646.8 943 643.5 C943 640.2 942.7 640 940 640 C937.3 640 937 639.6 937 637 C937 634.2 936.7 634 933.5 634 C930.1 634 930 633.8 930 630.5 C930 627.2 929.7 627 927 627 C924.3 627 924 626.6 924 624 C924 621 924 621 917.5 621 C911 621 911 621 911 617.5 C911 614 911 614 904.5 614 C898 614 898 614 898 611 C898 608 898 608 888 608 C878 608 878 608 878 604.5 C878 601 878 601 758 601 C638 601 638 601 638 598 C638 595.3 637.6 595 635 595 C632.2 595 632 594.7 632 591.5 C632 588.1 631.8 588 628.5 588 C625 588 625 588 625 578.5 C625 569 625 569 628.5 569 C631.7 569 632 569.2 632 572 C632 575 632 575 638.5 575 C645 575 645 575 645 578.5 C645 582 645 582 654.5 582 C664 582 664 582 664 585 C664 588 664 588 709.5 588 C755 588 755 588 755 585 C755 582 755 582 765 582 C775 582 775 582 775 578.5 C775 575 775 575 781.5 575 C788 575 788 575 788 572 C788 569.3 788.3 569 791 569 C793.7 569 794 568.7 794 565.5 C794 562 794 562 800.5 562 C807 562 807 562 807 559 C807 556.2 807.2 556 810.5 556 C813.8 556 814 555.8 814 552.5 C814 549.2 814.2 549 817 549 C819.6 549 820 548.6 820 546 C820 543.3 820.3 543 823 543 C825.7 543 826 542.7 826 539.5 C826 536.1 826.1 536 829.5 536 C832.7 536 833 535.7 833 533 C833 530.3 833.3 530 836 530 C839 530 839 530 839 523.5 C839 517 839 517 842.5 517 C845.8 517 846 516.8 846 513.5 C846 510.2 846.2 510 849 510 C851.6 510 852 509.6 852 507 C852 504 852 504 901 504 C950 504 950 504 950 507 C950 509.6 950.3 510 953 510 C955.7 510 956 510.2 956 513.5 C956 516.8 956.1 517 959.5 517 C962.7 517 963 517.2 963 520 C963 522.6 963.3 523 966 523 C969 523 969 523 969 529.5 C969 536 969 536 972.5 536 C976 536 976 536 976 585 C976 634 976 634 972.5 634 C969 634 969 634 969 640.5 C969 647 969 647 966 647 C963.3 647 963 647.3 963 650 C963 653 963 653 956.5 653 C950 653 950 653 950 650 M671 572 C671 569 671 569 661 569 C651 569 651 569 651 565.5 C651 562 651 562 644.5 562 C638 562 638 562 638 559 C638 556 638 556 631.5 556 C625 556 625 556 625 552.5 C625 549.2 624.7 549 622 549 C619.3 549 619 548.6 619 546 C619 543.2 618.7 543 615.5 543 C612.1 543 612 542.8 612 539.5 C612 536.2 611.7 536 609 536 C606.3 536 606 535.6 606 533 C606 530.2 605.7 530 602.5 530 C599.1 530 599 529.8 599 526.5 C599 523.2 598.7 523 596 523 C593.3 523 593 522.6 593 520 C593 517.2 592.7 517 589.5 517 C586 517 586 517 586 510.5 C586 504 586 504 583 504 C580 504 580 504 580 497.5 C580 491 580 491 576.5 491 C573 491 573 491 573 484.5 C573 478 573 478 570 478 C567 478 567 478 567 458.5 C567 439 567 439 564 439 C561 439 561 439 561 429.5 C561 420 561 420 564 420 C567 420 567 420 567 403.5 C567 387 567 387 570 387 C573 387 573 387 573 377.5 C573 368 573 368 576.5 368 C580 368 580 368 580 361.5 C580 355 580 355 583 355 C585.7 355 586 354.7 586 351.5 C586 348.1 586.1 348 589.5 348 C592.7 348 593 347.7 593 345 C593 342.3 593.3 342 596 342 C599 342 599 342 599 335.5 C599 329 599 329 602.5 329 C605.8 329 606 328.8 606 325.5 C606 322 606 322 612.5 322 C619 322 619 322 619 319 C619 316.3 619.3 316 622 316 C624.7 316 625 315.7 625 312.5 C625 309.1 625.1 309 628.5 309 C631.7 309 632 308.7 632 306 C632 303 632 303 638.5 303 C645 303 645 303 645 299.5 C645 296 645 296 654.5 296 C664 296 664 296 664 293 C664 290 664 290 674 290 C684 290 684 290 684 286.5 C684 283 684 283 710 283 C736 283 736 283 736 286.5 C736 290 736 290 745.5 290 C755 290 755 290 755 293 C755 296 755 296 765 296 C775 296 775 296 775 299.5 C775 303 775 303 781.5 303 C788 303 788 303 788 306 C788 308.6 788.3 309 791 309 C793.7 309 794 309.2 794 312.5 C794 316 794 316 800.5 316 C807 316 807 316 807 319 C807 321.7 807.2 322 810.5 322 C813.8 322 814 322.1 814 325.5 C814 328.7 814.2 329 817 329 C820 329 820 329 820 335.5 C820 342 820 342 823 342 C825.6 342 826 342.3 826 345 C826 347.7 826.2 348 829.5 348 C832.8 348 833 348.1 833 351.5 C833 354.7 833.2 355 836 355 C839 355 839 355 839 361.5 C839 368 839 368 842.5 368 C846 368 846 368 846 377.5 C846 387 846 387 849 387 C852 387 852 387 852 403.5 C852 420 852 420 855.5 420 C859 420 859 420 859 433 C859 446 859 446 855.5 446 C852 446 852 446 852 462 C852 478 852 478 849 478 C846 478 846 478 846 484.5 C846 491 846 491 842.5 491 C839 491 839 491 839 497.5 C839 504 839 504 836 504 C833 504 833 504 833 510.5 C833 517 833 517 829.5 517 C826.2 517 826 517.2 826 520 C826 522.6 825.6 523 823 523 C820.2 523 820 523.2 820 526.5 C820 529.7 819.7 530 817 530 C814.3 530 814 530.3 814 533 C814 535.7 813.7 536 810.5 536 C807.1 536 807 536.1 807 539.5 C807 542.7 806.7 543 804 543 C801.3 543 801 543.3 801 546 C801 548.7 800.7 549 797.5 549 C794.1 549 794 549.1 794 552.5 C794 556 794 556 787.5 556 C781 556 781 556 781 559 C781 562 781 562 774.5 562 C768 562 768 562 768 565.5 C768 569 768 569 761.5 569 C755 569 755 569 755 572 C755 575 755 575 713 575 C671 575 671 575 671 572 M710 539.5 C710 536.1 709.8 536 706.5 536 C703.2 536 703 535.7 703 533 C703 530.3 702.6 530 700 530 C697 530 697 530 697 513.5 C697 497 697 497 700 497 C703 497 703 497 703 491 C703 485 703 485 706.5 485 C709.8 485 710 484.8 710 481.5 C710 478 710 478 716.5 478 C723 478 723 478 723 475 C723 472.3 723.3 472 726 472 C728.7 472 729 471.7 729 468.5 C729 465 729 465 739 465 C749 465 749 465 749 462 C749 459 749 459 771.5 459 C794 459 794 459 794 462 C794 465 794 465 800.5 465 C807 465 807 465 807 471.5 C807 478 807 478 810.5 478 C814 478 814 478 814 487.5 C814 497 814 497 810.5 497 C807 497 807 497 807 503.5 C807 510 807 510 804 510 C801.2 510 801 510.2 801 513.5 C801 516.8 800.8 517 797.5 517 C794.2 517 794 517.2 794 520 C794 522.6 793.6 523 791 523 C788.2 523 788 523.2 788 526.5 C788 529.8 787.8 530 784.5 530 C781.2 530 781 530.2 781 533 C781 536 781 536 774.5 536 C768 536 768 536 768 539.5 C768 543 768 543 739 543 C710 543 710 543 710 539.5 M917 260.5 C917 257.2 916.7 257 914 257 C911 257 911 257 911 247.5 C911 238 911 238 914 238 C916.6 238 917 237.6 917 235 C917 232.2 917.2 232 920.5 232 C923.8 232 924 231.8 924 228.5 C924 225 924 225 933.5 225 C943 225 943 225 943 228.5 C943 232 943 232 949.5 232 C956 232 956 232 956 241.5 C956 251 956 251 953 251 C950.3 251 950 251.3 950 254 C950 256.7 949.7 257 946.5 257 C943.1 257 943 257.1 943 260.5 C943 264 943 264 930 264 C917 264 917 264 917 260.5 M820 254 C820 251.3 819.6 251 817 251 C814 251 814 251 814 238 C814 225 814 225 817 225 C819.6 225 820 224.6 820 222 C820 219.3 820.3 219 823 219 C825.7 219 826 218.7 826 215.5 C826 212 826 212 832.5 212 C839 212 839 212 839 215.5 C839 218.8 839.1 219 842.5 219 C845.7 219 846 219.2 846 222 C846 224.6 846.3 225 849 225 C852 225 852 225 852 234.5 C852 244 852 244 849 244 C846.2 244 846 244.2 846 247.5 C846 251 846 251 839.5 251 C833 251 833 251 833 254 C833 257 833 257 826.5 257 C820 257 820 257 820 254 M930 202.5 C930 199.2 929.7 199 927 199 C924 199 924 199 924 189.5 C924 180 924 180 927 180 C930 180 930 180 930 170 C930 160 930 160 933.5 160 C936.7 160 937 159.7 937 157 C937 154.3 937.3 154 940 154 C942.7 154 943 153.7 943 150.5 C943 147.1 943.1 147 946.5 147 C949.7 147 950 146.7 950 144 C950 141 950 141 956.5 141 C963 141 963 141 963 137.5 C963 134 963 134 972.5 134 C982 134 982 134 982 131 C982 128 982 128 988.5 128 C995 128 995 128 995 124.5 C995 121.1 995.1 121 998.5 121 C1002 121 1002 121 1002 101.5 C1002 82 1002 82 998.5 82 C995.2 82 995 81.7 995 79 C995 76 995 76 982 76 C969 76 969 76 969 79 C969 82 969 82 962.5 82 C956 82 956 82 956 88.5 C956 95 956 95 953 95 C950.2 95 950 95.2 950 98.5 C950 102 950 102 940 102 C930 102 930 102 930 98.5 C930 95.2 929.7 95 927 95 C924 95 924 95 924 85.5 C924 76 924 76 927 76 C929.7 76 930 75.7 930 72.5 C930 69.1 930.1 69 933.5 69 C936.7 69 937 68.7 937 66 C937 63.3 937.3 63 940 63 C942.7 63 943 62.7 943 59.5 C943 56 943 56 949.5 56 C956 56 956 56 956 53 C956 50 956 50 985.5 50 C1015 50 1015 50 1015 53 C1015 55.6 1015.3 56 1018 56 C1020.7 56 1021 56.2 1021 59.5 C1021 62.8 1021.1 63 1024.5 63 C1027.7 63 1028 63.2 1028 66 C1028 68.6 1028.3 69 1031 69 C1034 69 1034 69 1034 98.5 C1034 128 1034 128 1031 128 C1028 128 1028 128 1028 134.5 C1028 141 1028 141 1024.5 141 C1021.2 141 1021 141.2 1021 144 C1021 146.6 1020.6 147 1018 147 C1015.2 147 1015 147.2 1015 150.5 C1015 154 1015 154 1005 154 C995 154 995 154 995 157 C995 160 995 160 988.5 160 C982 160 982 160 982 163.5 C982 167 982 167 972.5 167 C963 167 963 167 963 176.5 C963 186 963 186 959.5 186 C956 186 956 186 956 192.5 C956 199 956 199 953 199 C950.2 199 950 199.2 950 202.5 C950 206 950 206 940 206 C930 206 930 206 930 202.5 M833 189.5 C833 186.1 832.8 186 829.5 186 C826 186 826 186 826 160 C826 134 826 134 829.5 134 C833 134 833 134 833 111.5 C833 89 833 89 836 89 C839 89 839 89 839 76 C839 63 839 63 842.5 63 C845.8 63 846 62.8 846 59.5 C846 56.2 846.2 56 849 56 C851.6 56 852 55.6 852 53 C852 50 852 50 858.5 50 C865 50 865 50 865 53 C865 55.7 865.2 56 868.5 56 C871.8 56 872 56.1 872 59.5 C872 62.7 872.2 63 875 63 C877.6 63 878 63.3 878 66 C878 68.6 877.6 69 875 69 C872 69 872 69 872 85.5 C872 102 872 102 868.5 102 C865 102 865 102 865 115 C865 128 865 128 862 128 C859 128 859 128 859 141 C859 154 859 154 855.5 154 C852 154 852 154 852 173.5 C852 193 852 193 842.5 193 C833 193 833 193 833 189.5 "/>
 </g>
</svg>