<?xml version="1.0" standalone="no"?>
<!DOCTYPE svg PUBLIC "-//W3C//DTD SVG 20010904//EN"
 "http://www.w3.org/TR/2001/REC-SVG-20010904/DTD/svg10.dtd">
<svg version="1.0" xmlns="http://www.w3.org/2000/svg"
 width="1283.000000pt" height="2081.000000pt" viewBox="0 0 1283.000000 2081.000000"
 preserveAspectRatio="xMidYMid meet">

<g transform="translate(0.000000,2081.000000) scale(0.100000,-0.100000)"
fill="#000000" stroke="none">
<path d="M8520 20280 c0 -27 -3 -30 -30 -30 -28 0 -30 -3 -30 -35 0 -33 -2
-35 -35 -35 l-35 0 0 -160 0 -160 -30 0 -30 0 0 -195 0 -195 -35 0 -35 0 0
-260 0 -260 35 0 c33 0 35 -2 35 -35 l0 -35 95 0 95 0 0 195 0 195 35 0 35 0
0 130 0 130 30 0 30 0 0 130 0 130 35 0 35 0 0 165 0 165 30 0 c27 0 30 3 30
30 0 27 -3 30 -30 30 -28 0 -30 3 -30 35 0 33 -2 35 -35 35 -32 0 -35 2 -35
30 l0 30 -65 0 -65 0 0 -30z"/>
<path d="M9560 20280 l0 -30 -65 0 -65 0 0 -35 c0 -32 -2 -35 -30 -35 -27 0
-30 -3 -30 -30 0 -28 -3 -30 -35 -30 -33 0 -35 -2 -35 -35 0 -32 -2 -35 -30
-35 l-30 0 0 -95 0 -95 30 0 c28 0 30 -3 30 -35 l0 -35 100 0 100 0 0 35 c0
32 2 35 30 35 l30 0 0 65 0 65 65 0 65 0 0 30 0 30 130 0 130 0 0 -30 c0 -28
3 -30 35 -30 l35 0 0 -195 0 -195 -35 0 c-33 0 -35 -2 -35 -35 l0 -35 -65 0
-65 0 0 -30 0 -30 -65 0 -65 0 0 -35 0 -35 -95 0 -95 0 0 -30 c0 -28 -3 -30
-35 -30 -33 0 -35 -2 -35 -35 0 -32 -2 -35 -30 -35 -27 0 -30 -3 -30 -30 0
-28 -3 -30 -35 -30 l-35 0 0 -100 0 -100 -30 0 -30 0 0 -95 0 -95 30 0 c28 0
30 -3 30 -35 l0 -35 100 0 100 0 0 35 c0 32 2 35 30 35 l30 0 0 65 0 65 35 0
35 0 0 95 0 95 95 0 95 0 0 35 0 35 65 0 65 0 0 30 0 30 100 0 100 0 0 35 c0
32 2 35 30 35 27 0 30 3 30 30 0 28 3 30 35 30 l35 0 0 65 0 65 30 0 30 0 0
295 0 295 -30 0 c-27 0 -30 3 -30 30 0 28 -3 30 -35 30 -33 0 -35 2 -35 35 0
32 -2 35 -30 35 -27 0 -30 3 -30 30 l0 30 -295 0 -295 0 0 -30z"/>
<path d="M8260 18655 c0 -32 -2 -35 -30 -35 -27 0 -30 -3 -30 -30 0 -27 -3
-30 -30 -30 l-30 0 0 -130 0 -130 30 0 c27 0 30 -3 30 -30 l0 -30 65 0 65 0 0
30 0 30 65 0 65 0 0 65 0 65 30 0 30 0 0 65 0 65 -30 0 c-27 0 -30 3 -30 30 0
28 -3 30 -35 30 -33 0 -35 2 -35 35 l0 35 -65 0 -65 0 0 -35z"/>
<path d="M6250 18525 l0 -35 -290 0 -290 0 0 -30 0 -30 -95 0 -95 0 0 -30 0
-30 -65 0 -65 0 0 -35 c0 -33 -2 -35 -35 -35 -32 0 -35 -2 -35 -30 0 -27 -3
-30 -30 -30 -28 0 -30 -3 -30 -35 l0 -35 -65 0 -65 0 0 -65 0 -65 -35 0 c-32
0 -35 -2 -35 -30 0 -27 -3 -30 -30 -30 -28 0 -30 -3 -30 -35 0 -33 -2 -35 -35
-35 l-35 0 0 -65 0 -65 -30 0 -30 0 0 -65 0 -65 -35 0 -35 0 0 -130 0 -130
-30 0 -30 0 0 -650 0 -650 30 0 30 0 0 -190 0 -190 35 0 35 0 0 -130 0 -130
30 0 30 0 0 -130 0 -130 35 0 35 0 0 -100 0 -100 30 0 30 0 0 -95 0 -95 35 0
35 0 0 -100 0 -100 30 0 30 0 0 -95 0 -95 35 0 35 0 0 -65 0 -65 30 0 30 0 0
-100 0 -100 35 0 35 0 0 -645 0 -645 65 0 65 0 0 30 0 30 65 0 65 0 0 35 c0
32 2 35 30 35 27 0 30 3 30 30 0 27 3 30 30 30 28 0 30 3 30 35 0 33 2 35 35
35 l35 0 0 65 0 65 30 0 c27 0 30 3 30 30 0 28 3 30 35 30 l35 0 0 65 0 65 30
0 30 0 0 95 0 95 35 0 35 0 0 100 0 100 30 0 30 0 0 160 0 160 35 0 35 0 0
360 0 360 -35 0 -35 0 0 95 0 95 -30 0 -30 0 0 100 0 100 -35 0 -35 0 0 95 0
95 -30 0 c-28 0 -30 3 -30 35 0 33 -2 35 -35 35 -32 0 -35 2 -35 30 0 27 -3
30 -30 30 l-30 0 0 65 0 65 -35 0 c-33 0 -35 2 -35 35 0 32 -2 35 -30 35 l-30
0 0 65 0 65 -30 0 -30 0 0 95 0 95 -35 0 -35 0 0 160 0 160 -30 0 -30 0 0 130
0 130 30 0 30 0 0 165 0 165 35 0 35 0 0 95 0 95 30 0 30 0 0 65 0 65 30 0 30
0 0 65 0 65 35 0 c33 0 35 2 35 35 0 32 2 35 30 35 27 0 30 3 30 30 0 28 3 30
35 30 33 0 35 2 35 35 0 32 2 35 30 35 27 0 30 3 30 30 0 28 3 30 35 30 33 0
35 2 35 35 0 32 2 35 30 35 27 0 30 3 30 30 0 28 3 30 35 30 33 0 35 2 35 35
l0 35 65 0 65 0 0 30 0 30 65 0 65 0 0 35 0 35 65 0 65 0 0 30 0 30 130 0 130
0 0 35 0 35 160 0 160 0 0 30 c0 27 -3 30 -30 30 l-30 0 0 65 0 65 -35 0 c-33
0 -35 2 -35 35 l0 35 -65 0 -65 0 0 30 0 30 -95 0 -95 0 0 30 0 30 -195 0
-195 0 0 35 c0 33 -2 35 -35 35 -33 0 -35 -2 -35 -35z"/>
<path d="M9240 18525 c0 -33 -2 -35 -35 -35 -32 0 -35 -2 -35 -30 0 -27 -3
-30 -30 -30 l-30 0 0 -95 0 -95 30 0 c28 0 30 -3 30 -35 l0 -35 130 0 130 0 0
35 c0 33 2 35 35 35 32 0 35 2 35 30 0 27 3 30 30 30 l30 0 0 95 0 95 -65 0
-65 0 0 35 0 35 -95 0 -95 0 0 -35z"/>
<path d="M6900 17945 l0 -35 -130 0 -130 0 0 -30 0 -30 -95 0 -95 0 0 -35 0
-35 -65 0 -65 0 0 -30 c0 -28 -3 -30 -35 -30 -33 0 -35 -2 -35 -35 0 -32 -2
-35 -30 -35 -27 0 -30 -3 -30 -30 l0 -30 -65 0 -65 0 0 -35 c0 -33 -2 -35 -35
-35 l-35 0 0 -65 0 -65 -30 0 c-27 0 -30 -3 -30 -30 0 -28 -3 -30 -35 -30 -33
0 -35 -2 -35 -35 0 -32 -2 -35 -30 -35 l-30 0 0 -65 0 -65 -35 0 -35 0 0 -95
0 -95 -30 0 -30 0 0 -165 0 -165 -30 0 c-27 0 -30 -3 -30 -30 0 -27 3 -30 30
-30 28 0 30 -3 30 -35 0 -32 -2 -35 -30 -35 -27 0 -30 -3 -30 -30 0 -27 3 -30
30 -30 l30 0 0 -195 0 -195 30 0 30 0 0 -65 0 -65 35 0 35 0 0 -65 0 -65 30 0
30 0 0 -65 0 -65 35 0 c32 0 35 -2 35 -30 0 -27 3 -30 30 -30 28 0 30 -3 30
-35 0 -33 2 -35 35 -35 32 0 35 -2 35 -30 0 -27 3 -30 30 -30 28 0 30 -3 30
-35 0 -33 2 -35 35 -35 32 0 35 -2 35 -30 0 -27 3 -30 30 -30 28 0 30 -3 30
-35 l0 -35 65 0 65 0 0 -30 0 -30 65 0 65 0 0 -35 0 -35 100 0 100 0 0 -30 0
-30 390 0 390 0 0 30 0 30 95 0 95 0 0 35 0 35 65 0 65 0 0 30 0 30 65 0 65 0
0 35 c0 33 2 35 35 35 32 0 35 2 35 30 0 27 3 30 30 30 28 0 30 3 30 35 0 33
2 35 35 35 32 0 35 2 35 30 0 27 3 30 30 30 28 0 30 3 30 35 0 32 2 35 30 35
27 0 30 3 30 30 0 28 3 30 35 30 l35 0 0 65 0 65 30 0 30 0 0 65 0 65 35 0 35
0 0 65 0 65 30 0 30 0 0 160 0 160 35 0 35 0 0 130 0 130 -35 0 -35 0 0 165 0
165 -30 0 -30 0 0 95 0 95 -35 0 -35 0 0 65 0 65 -30 0 c-28 0 -30 3 -30 35 0
33 -2 35 -35 35 -32 0 -35 2 -35 30 0 27 -3 30 -30 30 l-30 0 0 65 0 65 -30 0
c-28 0 -30 3 -30 35 0 33 -2 35 -35 35 -32 0 -35 2 -35 30 l0 30 -65 0 -65 0
0 35 c0 32 -2 35 -30 35 -27 0 -30 3 -30 30 l0 30 -65 0 -65 0 0 35 0 35 -100
0 -100 0 0 30 0 30 -130 0 -130 0 0 35 0 35 -195 0 -195 0 0 -35z m1040 -1755
l0 -30 65 0 65 0 0 -65 0 -65 35 0 35 0 0 -130 0 -130 -35 0 c-32 0 -35 -2
-35 -30 0 -27 -3 -30 -30 -30 -28 0 -30 -3 -30 -35 0 -33 -2 -35 -35 -35 -32
0 -35 -2 -35 -30 0 -27 -3 -30 -30 -30 -28 0 -30 -3 -30 -35 0 -33 -2 -35 -35
-35 -32 0 -35 -2 -35 -30 l0 -30 -65 0 -65 0 0 -35 0 -35 -290 0 -290 0 0 35
c0 33 -2 35 -35 35 -32 0 -35 2 -35 30 0 27 -3 30 -30 30 l-30 0 0 165 0 165
30 0 30 0 0 60 0 60 35 0 c33 0 35 2 35 35 l0 35 65 0 65 0 0 30 c0 27 3 30
30 30 28 0 30 3 30 35 l0 35 65 0 65 0 0 30 0 30 260 0 260 0 0 -30z"/>
<path d="M8520 15740 c0 -27 -3 -30 -30 -30 -28 0 -30 -3 -30 -35 0 -33 -2
-35 -35 -35 l-35 0 0 -65 0 -65 -30 0 c-27 0 -30 -3 -30 -30 0 -28 -3 -30 -35
-30 -33 0 -35 -2 -35 -35 0 -32 -2 -35 -30 -35 -27 0 -30 -3 -30 -30 0 -27 -3
-30 -30 -30 -28 0 -30 -3 -30 -35 0 -33 -2 -35 -35 -35 -32 0 -35 -2 -35 -30
l0 -30 -65 0 -65 0 0 -35 c0 -32 -2 -35 -30 -35 -27 0 -30 -3 -30 -30 l0 -30
-65 0 -65 0 0 -35 0 -35 -100 0 -100 0 0 -30 0 -30 -455 0 -455 0 0 30 0 30
-95 0 -95 0 0 35 0 35 -65 0 -65 0 0 30 c0 28 -3 30 -35 30 l-35 0 0 -95 0
-95 35 0 c33 0 35 -2 35 -35 l0 -35 65 0 65 0 0 -30 c0 -27 3 -30 30 -30 27 0
30 3 30 30 l0 30 65 0 65 0 0 -30 0 -30 455 0 455 0 0 30 0 30 65 0 65 0 0
-30 0 -30 230 0 230 0 0 30 c0 27 3 30 30 30 27 0 30 -3 30 -30 0 -27 3 -30
30 -30 27 0 30 3 30 30 l0 30 100 0 100 0 0 -30 0 -30 160 0 160 0 0 -35 0
-35 100 0 100 0 0 -30 0 -30 65 0 65 0 0 -35 0 -35 65 0 65 0 0 -30 c0 -27 3
-30 30 -30 28 0 30 -3 30 -35 0 -33 2 -35 35 -35 32 0 35 -2 35 -30 0 -27 3
-30 30 -30 28 0 30 -3 30 -35 0 -33 2 -35 35 -35 32 0 35 -2 35 -30 l0 -30 65
0 65 0 0 30 c0 27 3 30 30 30 l30 0 0 65 0 65 35 0 35 0 0 490 0 490 -35 0
-35 0 0 65 0 65 -30 0 c-27 0 -30 3 -30 30 0 28 -3 30 -35 30 -33 0 -35 2 -35
35 0 32 -2 35 -30 35 -27 0 -30 3 -30 30 l0 30 -490 0 -490 0 0 -30z"/>
<path d="M4570 15610 c0 -28 -3 -30 -35 -30 l-35 0 0 -65 0 -65 -30 0 -30 0 0
-490 0 -490 30 0 30 0 0 -65 0 -65 35 0 c32 0 35 -2 35 -30 0 -27 3 -30 30
-30 28 0 30 -3 30 -35 l0 -35 65 0 65 0 0 -30 0 -30 165 0 165 0 0 95 0 95
-35 0 -35 0 0 65 0 65 -30 0 -30 0 0 100 0 100 -35 0 -35 0 0 95 0 95 -30 0
-30 0 0 100 0 100 -35 0 -35 0 0 130 0 130 -30 0 -30 0 0 130 0 130 -35 0
c-32 0 -35 2 -35 30 0 27 -3 30 -30 30 -27 0 -30 -3 -30 -30z"/>
<path d="M6510 14375 l0 -295 -30 0 -30 0 0 -160 0 -160 -35 0 -35 0 0 -130 0
-130 -30 0 -30 0 0 -65 0 -65 -35 0 -35 0 0 -95 0 -95 -30 0 -30 0 0 -65 0
-65 -35 0 c-33 0 -35 -2 -35 -35 0 -32 -2 -35 -30 -35 l-30 0 0 -65 0 -65 -35
0 c-32 0 -35 -2 -35 -30 0 -27 -3 -30 -30 -30 -28 0 -30 -3 -30 -35 0 -33 -2
-35 -35 -35 -32 0 -35 -2 -35 -30 0 -27 -3 -30 -30 -30 -28 0 -30 -3 -30 -35
l0 -35 -65 0 -65 0 0 -30 0 -30 -65 0 -65 0 0 -35 0 -35 -95 0 -95 0 0 -4670
0 -4670 30 0 30 0 0 -65 0 -65 35 0 35 0 0 -65 0 -65 30 0 c27 0 30 -3 30 -30
0 -28 3 -30 35 -30 33 0 35 -2 35 -35 0 -32 2 -35 30 -35 27 0 30 -3 30 -30
l0 -30 65 0 65 0 0 -35 0 -35 130 0 130 0 0 -30 0 -30 95 0 95 0 0 30 0 30
100 0 100 0 0 35 0 35 65 0 65 0 0 30 0 30 65 0 65 0 0 35 c0 32 2 35 30 35
l30 0 0 65 0 65 35 0 c32 0 35 2 35 30 0 27 3 30 30 30 l30 0 0 100 0 100 35
0 35 0 0 3015 0 3015 130 0 130 0 0 -2985 0 -2985 30 0 30 0 0 -95 0 -95 35 0
35 0 0 -65 0 -65 30 0 c28 0 30 -3 30 -35 0 -33 2 -35 35 -35 l35 0 0 -65 0
-65 65 0 65 0 0 -30 0 -30 65 0 65 0 0 -35 0 -35 95 0 95 0 0 -30 0 -30 100 0
100 0 0 30 0 30 125 0 125 0 0 35 0 35 65 0 65 0 0 30 c0 28 3 30 35 30 33 0
35 2 35 35 0 32 2 35 30 35 27 0 30 3 30 30 0 28 3 30 35 30 l35 0 0 65 0 65
30 0 30 0 0 65 0 65 35 0 35 0 0 4540 0 4540 -35 0 c-33 0 -35 2 -35 35 0 32
-2 35 -30 35 -27 0 -30 3 -30 30 0 28 -3 30 -35 30 -33 0 -35 2 -35 35 0 32
-2 35 -30 35 l-30 0 0 65 0 65 -35 0 c-32 0 -35 2 -35 30 0 27 -3 30 -30 30
l-30 0 0 65 0 65 -35 0 -35 0 0 65 0 65 -30 0 -30 0 0 100 0 100 -35 0 -35 0
0 95 0 95 -30 0 -30 0 0 130 0 130 -30 0 -30 0 0 160 0 160 -35 0 -35 0 0 295
0 295 -30 0 -30 0 0 130 0 130 -750 0 -750 0 0 -295z"/>
<path d="M8330 14475 l0 -195 30 0 30 0 0 -260 0 -260 35 0 35 0 0 -130 0
-130 30 0 30 0 0 -130 0 -130 35 0 35 0 0 -95 0 -95 30 0 30 0 0 -65 0 -65 35
0 35 0 0 -65 0 -65 30 0 30 0 0 -65 0 -65 35 0 35 0 0 225 0 225 30 0 30 0 0
-65 0 -65 35 0 35 0 0 -95 0 -95 30 0 30 0 0 -100 0 -100 35 0 35 0 0 -130 0
-130 30 0 30 0 0 -130 0 -130 35 0 35 0 0 -225 0 -225 30 0 30 0 0 -485 0
-485 35 0 35 0 0 -490 0 -490 -35 0 c-32 0 -35 -2 -35 -30 0 -28 3 -30 35 -30
33 0 35 -2 35 -35 0 -33 -2 -35 -35 -35 l-35 0 0 -355 0 -355 35 0 35 0 0 -65
0 -65 30 0 c28 0 30 -3 30 -35 0 -33 2 -35 35 -35 32 0 35 -2 35 -30 0 -27 3
-30 30 -30 28 0 30 -3 30 -35 l0 -35 65 0 65 0 0 -30 0 -30 130 0 130 0 0 30
0 30 65 0 65 0 0 35 0 35 65 0 65 0 0 30 c0 28 3 30 35 30 l35 0 0 65 0 65 30
0 30 0 0 295 0 295 35 0 35 0 0 810 0 810 -35 0 -35 0 0 390 0 390 -30 0 -30
0 0 225 0 225 -35 0 -35 0 0 165 0 165 -30 0 -30 0 0 130 0 130 -35 0 -35 0 0
130 0 130 -30 0 -30 0 0 95 0 95 -35 0 -35 0 0 65 0 65 -30 0 -30 0 0 65 0 65
-35 0 -35 0 0 65 0 65 -30 0 -30 0 0 65 0 65 -35 0 -35 0 0 65 0 65 -30 0
c-27 0 -30 3 -30 30 0 28 -3 30 -35 30 l-35 0 0 65 0 65 -30 0 c-28 0 -30 3
-30 35 0 33 -2 35 -35 35 -32 0 -35 2 -35 30 0 27 -3 30 -30 30 -28 0 -30 3
-30 35 0 33 -2 35 -35 35 -32 0 -35 2 -35 30 0 27 -3 30 -30 30 -28 0 -30 3
-30 35 l0 35 -65 0 -65 0 0 30 c0 28 -3 30 -35 30 -33 0 -35 2 -35 35 l0 35
-65 0 -65 0 0 30 0 30 -95 0 -95 0 0 35 0 35 -195 0 -195 0 0 -195z"/>
<path d="M5020 13855 l0 -35 -65 0 -65 0 0 -30 c0 -27 -3 -30 -30 -30 -28 0
-30 -3 -30 -35 0 -33 -2 -35 -35 -35 l-35 0 0 -65 0 -65 -30 0 -30 0 0 -2655
0 -2655 30 0 30 0 0 -65 0 -65 35 0 c33 0 35 -2 35 -35 0 -32 2 -35 30 -35 27
0 30 -3 30 -30 l0 -30 65 0 65 0 0 -35 0 -35 100 0 100 0 0 35 c0 33 -2 35
-35 35 -32 0 -35 2 -35 30 0 28 3 30 35 30 l35 0 0 2725 0 2725 -35 0 c-32 0
-35 2 -35 30 0 28 3 30 35 30 l35 0 0 65 0 65 -35 0 c-33 0 -35 2 -35 35 0 33
2 35 35 35 32 0 35 2 35 30 0 28 -3 30 -35 30 -33 0 -35 2 -35 35 l0 35 -65 0
-65 0 0 -35z"/>
<path d="M9040 9900 l0 -1980 65 0 65 0 0 35 0 35 65 0 65 0 0 30 c0 28 3 30
35 30 33 0 35 2 35 35 0 32 2 35 30 35 l30 0 0 65 0 65 35 0 35 0 0 60 0 60
-35 0 c-33 0 -35 2 -35 35 0 32 -2 35 -30 35 -27 0 -30 3 -30 30 0 28 -3 30
-35 30 -33 0 -35 2 -35 35 0 32 -2 35 -30 35 l-30 0 0 65 0 65 -35 0 -35 0 0
1295 0 1295 -30 0 -30 0 0 295 0 295 -35 0 -35 0 0 -1980z"/>
<path d="M5730 1105 l0 -65 -30 0 -30 0 0 -290 0 -290 -30 0 -30 0 0 -225 0
-225 125 0 125 0 0 30 0 30 295 0 295 0 0 100 0 100 -230 0 -230 0 0 -35 0
-35 -95 0 -95 0 0 130 0 130 30 0 30 0 0 260 0 260 35 0 35 0 0 65 0 65 -35 0
c-32 0 -35 2 -35 30 l0 30 -65 0 -65 0 0 -65z"/>
<path d="M8390 1140 c0 -27 -3 -30 -30 -30 l-30 0 0 -130 0 -130 -35 0 c-33 0
-35 -2 -35 -35 l0 -35 -95 0 -95 0 0 -60 0 -60 65 0 65 0 0 -165 0 -165 -30 0
-30 0 0 -95 0 -95 30 0 c28 0 30 -3 30 -35 0 -32 2 -35 30 -35 27 0 30 -3 30
-30 l0 -30 130 0 130 0 0 30 c0 28 3 30 35 30 33 0 35 2 35 35 0 32 2 35 30
35 27 0 30 3 30 30 0 28 3 30 35 30 33 0 35 2 35 35 l0 35 -100 0 -100 0 0
-35 0 -35 -95 0 -95 0 0 65 0 65 30 0 30 0 0 165 0 165 130 0 130 0 0 30 0 30
65 0 65 0 0 65 0 65 -130 0 -130 0 0 130 0 130 -30 0 c-27 0 -30 3 -30 30 0
28 -3 30 -35 30 -32 0 -35 -2 -35 -30z"/>
<path d="M7680 880 c0 -27 -3 -30 -30 -30 -28 0 -30 -3 -30 -35 l0 -35 -65 0
-65 0 0 -60 0 -60 -35 0 -35 0 0 -65 0 -65 35 0 35 0 0 -65 0 -65 65 0 65 0 0
-35 0 -35 65 0 65 0 0 -30 c0 -27 3 -30 30 -30 28 0 30 -3 30 -35 l0 -35 -65
0 -65 0 0 -30 0 -30 -65 0 -65 0 0 30 0 30 -65 0 -65 0 0 -30 c0 -27 -3 -30
-30 -30 l-30 0 0 -65 0 -65 225 0 225 0 0 30 0 30 65 0 65 0 0 35 c0 33 2 35
35 35 l35 0 0 95 0 95 -35 0 c-33 0 -35 2 -35 35 0 32 -2 35 -30 35 -27 0 -30
3 -30 30 l0 30 -65 0 -65 0 0 35 c0 33 -2 35 -35 35 -32 0 -35 2 -35 30 0 27
-3 30 -30 30 -28 0 -30 3 -30 35 0 32 2 35 30 35 27 0 30 3 30 30 l0 30 165 0
165 0 0 95 0 95 -165 0 -165 0 0 -30z"/>
<path d="M6840 815 c0 -33 -2 -35 -35 -35 -32 0 -35 -2 -35 -30 0 -27 -3 -30
-30 -30 -27 0 -30 -3 -30 -30 0 -28 -3 -30 -35 -30 l-35 0 0 -65 0 -65 -30 0
-30 0 0 -195 0 -195 30 0 c28 0 30 -3 30 -35 0 -33 2 -35 35 -35 32 0 35 -2
35 -30 l0 -30 130 0 130 0 0 30 0 30 65 0 65 0 0 35 c0 32 2 35 30 35 27 0 30
3 30 30 0 28 3 30 35 30 l35 0 0 65 0 65 30 0 30 0 0 195 0 195 -30 0 c-27 0
-30 3 -30 30 0 28 -3 30 -35 30 -33 0 -35 2 -35 35 l0 35 -160 0 -160 0 0 -35z
m190 -125 c0 -28 3 -30 35 -30 l35 0 0 -165 0 -165 -35 0 c-32 0 -35 -2 -35
-30 0 -27 -3 -30 -30 -30 -28 0 -30 -3 -30 -35 l0 -35 -100 0 -100 0 0 165 0
165 35 0 c32 0 35 2 35 30 0 27 3 30 30 30 28 0 30 3 30 35 0 33 2 35 35 35
32 0 35 2 35 30 0 27 3 30 30 30 27 0 30 -3 30 -30z"/>
</g>
</svg>
