<svg xmlns="http://www.w3.org/2000/svg" enable-background="new 0 0 80 80" viewBox="0 0 80 80"><path d="M6.7567139,27.6328125c-1.0004883,0.125-1.7514648,0.9755859-1.7514648,1.984375v41.3466797c0,1.1044922,0.8955078,2,2,2
	c10.9365234,0,17.3979492-6.3671875,20.0693359-9.7695312C30.8548584,66.6103516,40.2347412,74.0009766,50.6497803,74
	c0.0371094,0,0.0761719,0,0.1132812,0c6.0200195-0.03125,11.3896484-2.5253906,15.9594727-7.4130859
	c15.4038086-16.4746094,5.5-43.828125,0.5268555-54.8232422C65.6409912,8.2080078,62.5091553,6,59.0755615,6H53.168335
	c-3.6123047,0-6.5512695,3.3925781-6.5512695,7.5634766c0,4.3457031,3.0556641,7.8808594,6.8110352,7.8808594h1.3569336
	l-1.5869141,21.3359375c-2.7241211-2.4326172-7.0004883-5.3525391-12.2460938-5.8945312
	c-4.4047852-0.4619141-8.6743164,0.8271484-12.7255859,3.8183594C25.0858154,36.4482422,16.5511475,26.4189453,6.7567139,27.6328125
	z M40.5174561,40.8613281c7.3276367,0.7451172,12.6943359,7.6953125,12.7451172,7.7626953
	c0.5019531,0.6640625,1.3623047,0.9462891,2.1611328,0.7138672c0.7983398-0.2353516,1.3676758-0.9404297,1.4296875-1.7705078
	L58.93396,19.5927734c0.0410156-0.5546875-0.1503906-1.1015625-0.5288086-1.5087891
	c-0.378418-0.4082031-0.909668-0.6396484-1.4658203-0.6396484h-3.5112305c-1.5239258,0-2.8110352-1.7773438-2.8110352-3.8808594
	C50.6170654,11.6318359,51.7855225,10,53.168335,10h5.9072266c1.8417969,0,3.5771484,1.3076172,4.5292969,3.4121094
	c4.6425781,10.2646484,13.9545898,35.7275391,0.1958008,50.4423828C60.0155029,67.9033203,55.6268311,69.9707031,50.7567139,70
	C39.1702881,70.0722656,28.324585,58.8652344,28.2166748,58.7529297c-0.3798828-0.3964844-0.9033203-0.6171875-1.4453125-0.6171875
	c-0.0820312,0-0.1640625,0.0048828-0.2460938,0.0146484c-0.6269531,0.078125-1.1811523,0.4472656-1.4931641,0.9960938
	c-0.0527344,0.0927734-5.1064453,8.7617188-16.0268555,9.7294922V31.5458984
	c8.9487305,0.5244141,17.0341797,13.0009766,17.1201172,13.1347656c0.3134766,0.4902344,0.8256836,0.8203125,1.4018555,0.9033203
	c0.5732422,0.0810547,1.1601562-0.0908203,1.5991211-0.4726562C32.8065186,41.8974609,36.6395264,40.4707031,40.5174561,40.8613281z
	"/></svg>