<svg xmlns="http://www.w3.org/2000/svg" data-name="Layer 1" viewBox="0 0 32 32"><path d="M29.18945,22.95117l-2.26562-2.27539a2.56161,2.56161,0,0,0-1.76855-.73145h-.01044a2.47576,2.47576,0,0,0,.56805-1.56738,2.5,2.5,0,0,0-5,0,2.47576,2.47576,0,0,0,.56805,1.56738h-.3454a1.50392,1.50392,0,0,1-1.05664-.43359l-.77051-.77051a1.62412,1.62412,0,0,0-.73755-.41907l-.07092-.21436-.00012-.00134L16.21,11.84668a4.48791,4.48791,0,0,0-4.26465-3.08252H11.3252V8.1601a2.73368,2.73368,0,0,0,1.23145-1.97552l.249-2.24268a3.49983,3.49983,0,1,0-6.957,0l.249,2.24268A2.73385,2.73385,0,0,0,7.3252,8.15723v.60693h-.5a4.50492,4.50492,0,0,0-4.5,4.5v5.99951a2.50232,2.50232,0,0,0,2.5,2.5h.5V28.8136a2.4137,2.4137,0,0,0-1.25879.6825,2.44232,2.44232,0,0,0-.74121,1.76758.49971.49971,0,0,0,.5.5h4a.49971.49971,0,0,0,.5-.5V29.4151a.47706.47706,0,0,0,.01953-.04889l.98535-4.69336L10.3252,29.318v1.94568a.49971.49971,0,0,0,.5.5h4a.49971.49971,0,0,0,.5-.5,2.46391,2.46391,0,0,0-.72168-1.75781,2.43835,2.43835,0,0,0-1.27832-.69342V19.27826l.002-.0097v-2.404l.63361,1.58417.00018.00146.53027,1.32031a3.1602,3.1602,0,0,0,2.94434,1.99316c.01306,0,.02515-.00354.03815-.00385L19.04688,23.333a1.51415,1.51415,0,0,1,.43848,1.06152v5.96a1.601,1.601,0,0,0,3.16992.30762l.33008-1.65723.33105,1.66211a1.601,1.601,0,0,0,3.16895-.3125V26.42383L26.418,24.834l.45117.45117a1.70961,1.70961,0,0,0,2.61914-.40918A1.644,1.644,0,0,0,29.18945,22.95117ZM6.8479,3.87775l-.00513-.0462A2.49562,2.49562,0,0,1,11.79626,3.22a6.35766,6.35766,0,0,1-.84607-.69019.50223.50223,0,0,0-.6084-.07031A11.78971,11.78971,0,0,1,7.33691,3.7666C7.16711,3.81177,7.01117,3.84015,6.8479,3.87775Zm.2439,2.19647L6.95886,4.877c.21112-.04669.41541-.08575.63879-.145a12.68181,12.68181,0,0,0,2.93457-1.22461,6.73126,6.73126,0,0,0,1.21967.86127L11.5625,6.07422a1.74075,1.74075,0,0,1-.86328,1.314l-.88086.50391a.99544.99544,0,0,1-.98242,0l-.88086-.50391A1.74075,1.74075,0,0,1,7.0918,6.07422Zm3.2334,2.67987v.64a1,1,0,1,1-2,0V8.75189l.01465.00836a1.99959,1.99959,0,0,0,1.97461,0Zm-5.5,12.00958a1.50164,1.50164,0,0,1-1.5-1.5v-.49548l.002.00037h2V19.254l-.002.0097v1.5Zm2.5,10h-2.915a1.48875,1.48875,0,0,1,.36328-.56055,1.4541,1.4541,0,0,1,1.05176-.43945h1.5Zm2.48926-8.60449a.50138.50138,0,0,0-.48926-.39551h-.001a.50043.50043,0,0,0-.48828.39746L7.44922,28.76367H6.3252v-9h6v9h-1.0957ZM13.8916,30.209a1.45054,1.45054,0,0,1,.34961.55469h-2.916v-1h1.5A1.46785,1.46785,0,0,1,13.8916,30.209Zm-.60254-16.13037-.00031-.00043a.49812.49812,0,0,0-.96112.188l-.00049.00232v4.49512h-6V14.26855a.5.5,0,0,0-1,0v3.5h-2l-.002.00037V13.26416a3.50425,3.50425,0,0,1,3.5-3.5h.53418l.00507.01807c.00677.03412.01935.06561.02783.09912a1.99045,1.99045,0,0,0,.08044.25848c.01666.0412.038.07935.05725.11914a1.98505,1.98505,0,0,0,.11224.20642c.02563.04022.05408.07758.08252.11578a1.99711,1.99711,0,0,0,.142.17206c.03314.03552.06732.06915.10291.10223a1.99261,1.99261,0,0,0,.1709.14105c.03894.02887.07739.05731.11841.08331a1.991,1.991,0,0,0,.20026.10883c.04211.02039.08276.04236.1264.05981a1.98647,1.98647,0,0,0,.24066.07489c.03937.01025.0769.02423.11719.032a1.905,1.905,0,0,0,.76343,0c.04028-.00781.07782-.02179.11719-.032a1.98647,1.98647,0,0,0,.24066-.07489c.04364-.01746.08429-.03943.1264-.05981a1.991,1.991,0,0,0,.20026-.10883c.041-.026.07947-.05444.11841-.08331a1.99262,1.99262,0,0,0,.1709-.14105c.03558-.03308.06976-.06671.10291-.10223a1.99711,1.99711,0,0,0,.142-.17206c.02844-.03821.05688-.07556.08252-.11578a1.98505,1.98505,0,0,0,.11224-.20642c.01929-.03979.04059-.07794.05725-.11914a1.99045,1.99045,0,0,0,.08044-.25848c.00848-.03351.02106-.065.02783-.09912l.00507-.01807h.6543a3.48818,3.48818,0,0,1,3.31543,2.39795l1.87012,5.60156H14.76367Zm4.14648,6.68506a2.16528,2.16528,0,0,1-2.0166-1.36621l-.25488-.63379h2.2998L17.915,20.125a.44726.44726,0,0,1,.02051.14941A.49568.49568,0,0,1,17.43555,20.76367ZM23.21289,16.877a1.5,1.5,0,1,1-1.5,1.5A1.50164,1.50164,0,0,1,23.21289,16.877ZM21.67383,30.4707a.60113.60113,0,0,1-1.18848-.11621V30h1.28223Zm3.81152-.11621a.60121.60121,0,0,1-1.18945.1123L24.20294,30h1.28241Zm1.233-6.63416-.49963-.49963a.50015.50015,0,0,0-.85352.374l.12012,2.84961V29H24.00385l-.52826-2.65332a.49983.49983,0,0,0-.98047,0L21.96674,29H20.48535V24.39453a2.5168,2.5168,0,0,0-.72656-1.76367L18.47333,21.3454a1.47733,1.47733,0,0,0,.46222-1.071,1.37581,1.37581,0,0,0-.0556-.34857l.29193.29193a2.509,2.509,0,0,0,1.76367.72656h4.21973a1.54976,1.54976,0,0,1,1.06543.44238l1.4129,1.41895Zm1.88416.69177a.68156.68156,0,0,1-1.03418.1582l-.14294-.14294.9137-.91315.14722.14789A.63959.63959,0,0,1,28.60254,24.41211Z"/></svg>