<?xml version="1.0" encoding="UTF-8" standalone="no"?>
<svg
   xmlns:dc="http://purl.org/dc/elements/1.1/"
   xmlns:cc="http://creativecommons.org/ns#"
   xmlns:rdf="http://www.w3.org/1999/02/22-rdf-syntax-ns#"
   xmlns:svg="http://www.w3.org/2000/svg"
   xmlns="http://www.w3.org/2000/svg"
   xmlns:sodipodi="http://sodipodi.sourceforge.net/DTD/sodipodi-0.dtd"
   xmlns:inkscape="http://www.inkscape.org/namespaces/inkscape"
   id="Layer_1"
   enable-background="new 0 0 512.292 512.292"
   height="512"
   viewBox="0 0 512.292 512.292"
   width="512"
   version="1.1"
   sodipodi:docname="approve.svg"
   inkscape:version="1.0.1 (3bc2e813f5, 2020-09-07)">
  <metadata
     id="metadata21">
    <rdf:RDF>
      <cc:Work
         rdf:about="">
        <dc:format>image/svg+xml</dc:format>
        <dc:type
           rdf:resource="http://purl.org/dc/dcmitype/StillImage" />
      </cc:Work>
    </rdf:RDF>
  </metadata>
  <defs
     id="defs19" />
  <sodipodi:namedview
     pagecolor="#ffffff"
     bordercolor="#666666"
     borderopacity="1"
     objecttolerance="10"
     gridtolerance="10"
     guidetolerance="10"
     inkscape:pageopacity="0"
     inkscape:pageshadow="2"
     inkscape:window-width="1920"
     inkscape:window-height="1001"
     id="namedview17"
     showgrid="false"
     inkscape:zoom="1.6210938"
     inkscape:cx="137.25301"
     inkscape:cy="256"
     inkscape:window-x="-9"
     inkscape:window-y="-9"
     inkscape:window-maximized="1"
     inkscape:current-layer="g14" />
  <g
     id="g14">
    <g
       id="g8">
      <g
         id="g4">
        <ellipse
           cx="256.146"
           cy="256.146"
           fill="#ff0031"
           rx="256.064"
           ry="256.146"
           id="ellipse2" />
      </g>
      <path
         d="m256.404 0v512.286c141.301-.14 255.806-114.764 255.806-256.143s-114.505-256.003-255.806-256.143z"
         fill="#ae2538"
         id="path6"
         style="fill:#ff0031;fill-opacity:1" />
    </g>
    <path
       d="m372.338 182.874-43.712-43.712c-2.148-2.148-5.631-2.148-7.779 0l-61.172 61.172c-2.148 2.148-5.631 2.148-7.779 0l-61.172-61.172c-2.148-2.148-5.631-2.148-7.779 0l-43.712 43.712c-2.148 2.148-2.148 5.631 0 7.779l61.172 61.172c2.148 2.148 2.148 5.631 0 7.779l-61.172 61.172c-2.148 2.148-2.148 5.631 0 7.779l43.712 43.712c2.148 2.148 5.631 2.148 7.779 0l61.172-61.172c2.148-2.148 5.631-2.148 7.779 0l61.172 61.172c2.148 2.148 5.631 2.148 7.779 0l43.712-43.712c2.148-2.148 2.148-5.631 0-7.779l-61.172-61.172c-2.148-2.148-2.148-5.631 0-7.779l61.172-61.172c2.148-2.148 2.148-5.63 0-7.779z"
       fill="#fff5f5"
       id="path10" />
    <path
       d="m372.338 190.654c2.148-2.148 2.148-5.631 0-7.779l-43.712-43.712c-2.148-2.148-5.631-2.148-7.779 0l-61.172 61.172c-1.008 1.008-2.312 1.525-3.632 1.586v107.589c1.32.062 2.624.578 3.632 1.586l61.172 61.172c2.148 2.148 5.631 2.148 7.779 0l43.712-43.712c2.148-2.148 2.148-5.631 0-7.779l-61.172-61.172c-2.148-2.148-2.148-5.631 0-7.779z"
       fill="#dfebf1"
       id="path12"
       style="fill:#fff5f5;fill-opacity:1" />
  </g>
</svg>
