<?xml version="1.0" encoding="UTF-8" standalone="no"?>
<svg
   xmlns:dc="http://purl.org/dc/elements/1.1/"
   xmlns:cc="http://creativecommons.org/ns#"
   xmlns:rdf="http://www.w3.org/1999/02/22-rdf-syntax-ns#"
   xmlns:svg="http://www.w3.org/2000/svg"
   xmlns="http://www.w3.org/2000/svg"
   xmlns:sodipodi="http://sodipodi.sourceforge.net/DTD/sodipodi-0.dtd"
   xmlns:inkscape="http://www.inkscape.org/namespaces/inkscape"
   id="Capa_1"
   enable-background="new 0 0 512 512"
   height="512"
   viewBox="0 0 512 512"
   width="512"
   version="1.1"
   sodipodi:docname="bonfire_empty.svg"
   inkscape:version="1.0.1 (3bc2e813f5, 2020-09-07)">
  <metadata
     id="metadata11">
    <rdf:RDF>
      <cc:Work
         rdf:about="">
        <dc:format>image/svg+xml</dc:format>
        <dc:type
           rdf:resource="http://purl.org/dc/dcmitype/StillImage" />
      </cc:Work>
    </rdf:RDF>
  </metadata>
  <defs
     id="defs9" />
  <sodipodi:namedview
     pagecolor="#ffffff"
     bordercolor="#666666"
     borderopacity="1"
     objecttolerance="10"
     gridtolerance="10"
     guidetolerance="10"
     inkscape:pageopacity="0"
     inkscape:pageshadow="2"
     inkscape:window-width="1920"
     inkscape:window-height="1001"
     id="namedview7"
     showgrid="false"
     inkscape:zoom="1.1462864"
     inkscape:cx="221.9442"
     inkscape:cy="277.83115"
     inkscape:window-x="-9"
     inkscape:window-y="-9"
     inkscape:window-maximized="1"
     inkscape:current-layer="g4" />
  <g
     id="g4">
    <path
       d="m512 388.766c0-30.327-24.673-55-55-55h-34.455c14.601-36.348 16.955-76.637 6.058-115.481l-29.311-104.481-46.168 48.208-97.124-154.823-97.125 154.823-46.168-48.208-29.31 104.48c-10.897 38.844-8.542 79.133 6.058 115.481h-34.455c-30.327 0-55 24.673-55 55 0 29.994 24.137 54.441 54.006 54.975-.963 8.63.136 17.423 3.339 25.762 5.268 13.714 15.561 24.556 28.983 30.529 7.153 3.183 14.738 4.78 22.34 4.78 6.661 0 13.336-1.227 19.741-3.687l127.591-49.009 127.591 49.009c6.406 2.46 13.079 3.687 19.741 3.687 7.601 0 15.188-1.597 22.34-4.78 13.422-5.973 23.715-16.814 28.983-30.529 3.203-8.339 4.302-17.132 3.339-25.762 29.869-.533 54.006-24.98 54.006-54.974zm-399.718-162.378 15.113-53.874 36.438 38.048 92.167-146.92 92.167 146.921 36.438-38.048 15.113 53.874c12.666 45.147 3.856 92.644-24.17 130.31-4.708 6.328-9.85 12.198-15.353 17.605l-7.294-2.802c4.406-16.933 4.315-34.914-.582-52.373l-18.597-66.292-26.247 27.407-51.475-82.055-51.475 82.054-26.247-27.407-18.597 66.292c-4.898 17.459-4.988 35.439-.582 52.373l-7.294 2.802c-5.503-5.407-10.644-11.277-15.353-17.605-28.026-37.667-36.836-85.163-24.17-130.31zm199.801 162.029c-12.944 17.397-32.716 27.596-54.249 27.982-1.22.022-2.445.022-3.671 0-21.529-.386-41.301-10.585-54.245-27.982-13.16-17.687-17.297-39.988-11.351-61.186l4.4-15.684 16.516 17.246 46.517-74.151 46.518 74.152 16.516-17.246 4.4 15.684c5.946 21.197 1.809 43.498-11.351 61.185zm-282.083.349c0-13.785 11.215-25 25-25h49.923c2.35 3.678 4.826 7.299 7.46 10.84 2.917 3.921 5.978 7.69 9.157 11.322l-32.574 12.512c-8.581 3.296-16.038 8.56-21.881 15.327h-12.085c-13.785-.001-25-11.216-25-25.001zm87.651 84.353c-6.233 2.394-13.026 2.217-19.127-.497-6.101-2.715-10.78-7.643-13.174-13.877s-2.218-13.027.497-19.128 7.643-10.779 13.877-13.174l45.934-17.644c17.799 13.98 38.024 24.355 59.718 30.623zm308.999-14.373c-2.395 6.234-7.073 11.162-13.174 13.877s-12.893 2.891-19.127.497l-87.725-33.696c21.695-6.268 41.92-16.643 59.719-30.623l45.934 17.644c6.234 2.395 11.162 7.073 13.877 13.174 2.714 6.1 2.89 12.893.496 19.127zm30.35-44.98h-12.086c-5.843-6.767-13.299-12.031-21.881-15.327l-32.574-12.512c3.18-3.631 6.24-7.401 9.157-11.322 2.634-3.541 5.11-7.161 7.46-10.84h49.924c13.785 0 25 11.215 25 25s-11.215 25.001-25 25.001z"
       id="path2"
       style="fill:#b3b3b3" />
  </g>
</svg>
