<?xml version="1.0" encoding="UTF-8" standalone="no"?>
<svg
   xmlns:dc="http://purl.org/dc/elements/1.1/"
   xmlns:cc="http://creativecommons.org/ns#"
   xmlns:rdf="http://www.w3.org/1999/02/22-rdf-syntax-ns#"
   xmlns:svg="http://www.w3.org/2000/svg"
   xmlns="http://www.w3.org/2000/svg"
   xmlns:sodipodi="http://sodipodi.sourceforge.net/DTD/sodipodi-0.dtd"
   xmlns:inkscape="http://www.inkscape.org/namespaces/inkscape"
   id="Layer_1"
   enable-background="new 0 0 512.063 512.063"
   height="512"
   viewBox="0 0 512.063 512.063"
   width="512"
   version="1.1"
   sodipodi:docname="decline.svg"
   inkscape:version="1.0.1 (3bc2e813f5, 2020-09-07)">
  <metadata
     id="metadata19">
    <rdf:RDF>
      <cc:Work
         rdf:about="">
        <dc:format>image/svg+xml</dc:format>
        <dc:type
           rdf:resource="http://purl.org/dc/dcmitype/StillImage" />
      </cc:Work>
    </rdf:RDF>
  </metadata>
  <defs
     id="defs17" />
  <sodipodi:namedview
     pagecolor="#ffffff"
     bordercolor="#666666"
     borderopacity="1"
     objecttolerance="10"
     gridtolerance="10"
     guidetolerance="10"
     inkscape:pageopacity="0"
     inkscape:pageshadow="2"
     inkscape:window-width="1920"
     inkscape:window-height="1001"
     id="namedview15"
     showgrid="false"
     inkscape:zoom="1.6210938"
     inkscape:cx="256"
     inkscape:cy="256"
     inkscape:window-x="-9"
     inkscape:window-y="-9"
     inkscape:window-maximized="1"
     inkscape:current-layer="g12"
     inkscape:document-rotation="0" />
  <g
     id="g12">
    <g
       id="g4">
      <ellipse
         cx="256.032"
         cy="256.032"
         fill="#00df76"
         rx="255.949"
         ry="256.032"
         id="ellipse2" />
    </g>
    <path
       d="m256.032 0c-.116 0-.231.004-.347.004v512.055c.116 0 .231.004.347.004 141.357 0 255.949-114.629 255.949-256.032s-114.592-256.031-255.949-256.031z"
       fill="#00ab5e"
       id="path6"
       style="fill:#00df76;fill-opacity:1" />
    <path
       d="m111.326 261.118 103.524 103.524c4.515 4.515 11.836 4.515 16.351 0l169.957-169.957c4.515-4.515 4.515-11.836 0-16.351l-30.935-30.935c-4.515-4.515-11.836-4.515-16.351 0l-123.617 123.615c-4.515 4.515-11.836 4.515-16.351 0l-55.397-55.397c-4.426-4.426-11.571-4.526-16.119-.226l-30.83 29.149c-4.732 4.475-4.837 11.973-.232 16.578z"
       fill="#fff5f5"
       id="path8"
       style="fill:#f2f2f2;fill-opacity:1" />
    <path
       d="m370.223 147.398c-4.515-4.515-11.836-4.515-16.351 0l-98.187 98.187v94.573l145.473-145.473c4.515-4.515 4.515-11.836 0-16.352z"
       fill="#dfebf1"
       id="path10"
       style="fill:#f2f2f2" />
  </g>
</svg>
