<svg xmlns="http://www.w3.org/2000/svg" viewBox="0 0 48 48"><path d="M39.07,29.8748A7.9921,7.9921,0,0,0,35,15a7.8909,7.8909,0,0,0-5.7855,2.4785,9.8558,9.8558,0,0,0-1.1444-.6036,8,8,0,1,0-8.1407,0,9.8608,9.8608,0,0,0-1.1444.6034A7.891,7.891,0,0,0,13,15,7.9921,7.9921,0,0,0,8.93,29.8748,10.0086,10.0086,0,0,0,3,39v6a1,1,0,0,0,1,1H22a1,1,0,0,0,1-1V39c0-.3309-.022-.6652-.0554-1h2.1108c-.0334.3348-.0554.6691-.0554,1v6a1,1,0,0,0,1,1H44a1,1,0,0,0,1-1V39A10.0085,10.0085,0,0,0,39.07,29.8748ZM35,17a6,6,0,1,1-1,11.918V26a10.209,10.209,0,0,0-.0641-1.1146c-.0133-.1217-.0381-.24-.0557-.3605-.0357-.2434-.0736-.4858-.1266-.7241-.0314-.1409-.0721-.2782-.1094-.4171-.0572-.2128-.117-.4242-.188-.6318-.049-.1436-.1042-.2841-.16-.425-.0775-.1967-.16-.3907-.25-.5817q-.0984-.209-.2059-.4125c-.0987-.1863-.2047-.3682-.3153-.548-.0795-.1293-.1584-.2583-.244-.3839-.124-.1822-.2581-.3574-.3947-.5316-.0877-.1119-.1717-.226-.2645-.3344-.1653-.1932-.3436-.3763-.5247-.5578-.078-.0781-.15-.1609-.23-.2367-.0157-.0147-.0289-.0313-.0447-.046A5.9167,5.9167,0,0,1,35,17ZM18,10a6,6,0,1,1,6,6A6.0066,6.0066,0,0,1,18,10Zm10.8008,9.6094A7.9211,7.9211,0,0,1,32,26V36H16V26a8.1611,8.1611,0,0,1,.0541-.9405,7.9916,7.9916,0,0,1,12.7467-5.45ZM7,23a6.0066,6.0066,0,0,1,6-6,5.9165,5.9165,0,0,1,4.1777,1.6943c-.016.0149-.0294.0317-.0453.0466-.0733.0688-.1381.144-.2091.2147-.19.1891-.3758.3809-.5484.5829-.0874.1022-.1664.21-.2493.3151-.1423.1807-.2815.363-.41.5523-.0822.121-.1579.245-.2345.3691-.1139.1847-.2228.3714-.3241.5628q-.1052.199-.2006.4021c-.0917.1943-.1756.3918-.2544.5919-.0545.1384-.1086.2764-.1569.4173-.0717.21-.1321.4227-.19.6373-.037.1378-.0773.2741-.1084.4138-.0532.2387-.0911.4815-.1268.7254-.0176.12-.0424.2384-.0557.36A10.209,10.209,0,0,0,14,26v2.918A6.0105,6.0105,0,0,1,7,23ZM21,39v5H5V39a8.0151,8.0151,0,0,1,9-7.9375V37a1,1,0,0,0,1,1h5.9375A8.06,8.06,0,0,1,21,39Zm22,5H27V39a8.06,8.06,0,0,1,.0625-1H33a1,1,0,0,0,1-1V31.0625A8.0145,8.0145,0,0,1,43,39Z"/></svg>