<?xml version="1.0" encoding="UTF-8" standalone="no"?>
<svg
   xmlns:dc="http://purl.org/dc/elements/1.1/"
   xmlns:cc="http://creativecommons.org/ns#"
   xmlns:rdf="http://www.w3.org/1999/02/22-rdf-syntax-ns#"
   xmlns:svg="http://www.w3.org/2000/svg"
   xmlns="http://www.w3.org/2000/svg"
   xmlns:sodipodi="http://sodipodi.sourceforge.net/DTD/sodipodi-0.dtd"
   xmlns:inkscape="http://www.inkscape.org/namespaces/inkscape"
   width="94.677551mm"
   height="106.49514mm"
   viewBox="0 0 94.677551 106.49514"
   version="1.1"
   id="svg68"
   inkscape:version="1.0.1 (3bc2e813f5, 2020-09-07)"
   sodipodi:docname="guide.svg">
  <defs
     id="defs62" />
  <sodipodi:namedview
     id="base"
     pagecolor="#ffffff"
     bordercolor="#666666"
     borderopacity="1.0"
     inkscape:pageopacity="0.0"
     inkscape:pageshadow="2"
     inkscape:zoom="0.35"
     inkscape:cx="230.34677"
     inkscape:cy="329.82209"
     inkscape:document-units="mm"
     inkscape:current-layer="layer1"
     inkscape:document-rotation="0"
     showgrid="false"
     fit-margin-top="0"
     fit-margin-left="0"
     fit-margin-right="0"
     fit-margin-bottom="0"
     inkscape:window-width="1431"
     inkscape:window-height="1030"
     inkscape:window-x="128"
     inkscape:window-y="0"
     inkscape:window-maximized="0" />
  <metadata
     id="metadata65">
    <rdf:RDF>
      <cc:Work
         rdf:about="">
        <dc:format>image/svg+xml</dc:format>
        <dc:type
           rdf:resource="http://purl.org/dc/dcmitype/StillImage" />
        <dc:title></dc:title>
      </cc:Work>
    </rdf:RDF>
  </metadata>
  <g
     inkscape:label="Layer 1"
     inkscape:groupmode="layer"
     id="layer1"
     transform="translate(-44.887416,-60.90124)">
    <path
       d="m 89.577293,61.421935 c -3.598334,0.9525 -7.337777,3.81 -9.525,7.196666 -1.058334,1.658056 -1.093611,1.693334 -3.739444,2.081389 -3.069167,0.458612 -5.291666,1.481667 -5.856111,2.681112 -0.211666,0.493888 -0.3175,0.9525 -0.246944,1.023055 0.176389,0.176389 15.451665,3.033889 33.125836,6.208889 7.65527,1.375833 14.2875,2.575277 14.71083,2.645833 1.02306,0.246944 1.19944,-0.176389 0.77611,-1.658055 -0.35278,-1.411112 -2.78694,-3.845278 -4.69194,-4.7625 -1.02306,-0.458611 -1.23473,-0.776111 -1.44639,-2.116667 -0.10584,-0.846667 -0.84667,-2.822222 -1.65806,-4.374445 -2.36361,-4.727222 -5.92666,-7.62 -11.077221,-8.960555 -2.575277,-0.670278 -7.831666,-0.635 -10.371666,0.03528 z"
       id="path8"
       style="stroke-width:0.0352777" />
    <path
       d="m 77.053682,80.754157 c -0.352777,2.328333 0.423334,6.279444 1.799167,9.031111 2.08139,4.1275 6.6675,7.76111 11.1125,8.784167 2.187223,0.529166 6.17361,0.45861 8.255,-0.105834 5.644441,-1.516943 10.548051,-6.35 12.100281,-11.923889 0.35277,-1.234722 0.3175,-1.305277 -0.56445,-1.481666 -2.78694,-0.599723 -31.644164,-5.856111 -32.032221,-5.856111 -0.28222,0 -0.529166,0.635 -0.670277,1.552222 z"
       id="path12"
       style="stroke-width:0.0352777" />
    <path
       d="m 79.523126,104.74304 c -2.010833,0.635 -3.386667,1.41111 -4.374444,2.43417 l -0.811387,0.91722 1.622777,-0.49389 1.658054,-0.49389 7.549446,4.02167 7.549444,4.05695 10.936114,-2.68112 c 12.31194,-2.99861 11.67694,-2.61055 8.74889,-5.32694 -0.84667,-0.77611 -2.43417,-1.76389 -3.56306,-2.18722 -1.905,-0.70556 -2.57528,-0.74084 -14.957778,-0.70556 -9.419166,0 -13.335,0.14111 -14.358056,0.45861 z"
       id="path16"
       style="stroke-width:0.0352777" />
    <path
       d="m 68.763405,113.80943 c -4.162778,1.12889 -8.184444,2.25778 -8.89,2.43417 l -1.340555,0.38805 v 2.08139 2.11667 l -6.067778,7.69056 c -7.196666,9.03111 -7.831666,10.12472 -7.514166,12.59416 0.282222,2.2225 1.516944,4.97417 2.8575,6.31472 2.575277,2.57528 5.750277,2.57528 9.136944,0.0353 l 1.199444,-0.9525 0.105834,4.05695 0.105833,4.05694 6.702777,-2.61055 c 3.704167,-1.44639 6.843891,-2.61056 7.055557,-2.61056 0.176387,0 5.326944,1.76389 11.429998,3.95111 l 11.1125,3.91584 13.969997,-2.71639 c 7.72584,-1.51695 14.74611,-2.89278 15.66334,-3.10445 l 1.62277,-0.35277 v -2.25778 -2.25778 l 1.72862,1.19944 c 2.25777,1.51695 4.83305,2.18723 6.49111,1.65806 2.50472,-0.84667 4.86833,-4.26861 5.36222,-7.83167 0.35278,-2.50472 -0.42333,-3.84527 -7.33778,-12.48833 l -6.20889,-7.76111 -0.0353,-4.86833 c 0,-2.64584 -0.0705,-4.83306 -0.17639,-4.83306 -0.10583,0 -7.37305,1.65806 -16.1925,3.70417 -8.78416,2.04611 -16.263052,3.70416 -16.580552,3.70416 -0.3175,0 -3.915833,-1.65805 -7.972777,-3.70416 -4.056943,-2.04611 -7.690556,-3.70417 -8.008056,-3.66889 -0.352777,0 -4.056944,0.9525 -8.219721,2.11667 z m 38.417495,5.11528 c 8.07862,-1.86972 14.88723,-3.38667 15.13417,-3.38667 0.3175,0 0.42333,1.905 0.42333,8.29028 v 8.29028 l -2.29305,-1.5875 c -1.27,-0.88195 -4.09222,-2.46945 -6.27945,-3.56306 -5.89138,-2.92805 -8.81944,-2.75166 -9.80722,0.52917 -0.91722,3.13972 0.24695,4.40972 10.44222,11.35944 l 7.9375,5.43278 -0.10583,2.29306 -0.0705,2.25777 -12.17084,2.39889 c -6.70277,1.30528 -12.911661,2.50473 -13.828884,2.68111 -1.552221,0.28223 -2.257777,0.10584 -12.876388,-3.66888 -6.173612,-2.2225 -11.359443,-4.02167 -11.57111,-4.02167 -0.17639,0 -2.681112,0.9525 -5.57389,2.08139 -2.8575,1.12889 -5.221111,1.97555 -5.291666,1.83444 -0.03528,-0.10583 -0.03528,-1.48166 0.03528,-3.03389 l 0.141111,-2.82222 7.761111,-5.29167 c 10.265834,-7.02027 11.571111,-8.46666 10.477501,-11.60638 -0.388057,-1.09361 -0.81139,-1.62278 -1.834446,-2.08139 -1.975554,-0.98778 -3.951111,-0.38806 -10.759721,3.175 l -5.820833,3.03389 0.176388,-6.24417 c 0.105834,-3.42194 0.246945,-6.31472 0.352778,-6.38528 0.07056,-0.0706 3.527778,-1.09361 7.690556,-2.2225 l 7.584721,-2.08139 7.725834,3.84528 7.76111,3.88056 z"
       id="path18"
       style="stroke-width:0.0352777" />
    <path
       d="m 71.938405,156.03693 c 0,1.55222 -0.105833,4.72722 -0.246943,7.05556 l -0.211667,4.30389 h 22.789444 22.824721 v -5.29167 c 0,-2.92806 -0.0706,-5.29167 -0.14111,-5.29167 -0.10583,0 -4.79778,0.9525 -10.44222,2.11667 -5.64445,1.16417 -10.653891,2.11667 -11.112504,2.11667 -0.45861,0 -5.785554,-1.76389 -11.853333,-3.88056 -6.067777,-2.15194 -11.147777,-3.88056 -11.324164,-3.88056 -0.141113,0 -0.282224,1.23473 -0.282224,2.75167 z"
       id="path20"
       style="stroke-width:0.0352777" />
  </g>
</svg>
