<svg id="Layer_1" data-name="Layer 1" xmlns="http://www.w3.org/2000/svg" viewBox="0 0 621.12 333.6"><defs><style>.cls-1{fill:#ff6b00;}.cls-2{fill:#fff;}</style></defs><title>me</title><path class="cls-1" d="M56.67,332.59H42.81l0-38-10,24.64H23.17l-10-24.62,0,37.95H0l0-56.68H16.19l12.16,28.43,12.11-28.44H56.64Z"/><path class="cls-1" d="M109.53,332.57H70.45l0-56.68h39.08v11H84.29v9.78h23.4v11l-23.41,0v14h25.22Z"/><path class="cls-2" d="M164.18,332.54h-7.66l-5.3-15.8H127.85l-5.29,15.8h-7.3l19.65-56.69h9.58ZM149,310.28l-9.48-27.82L130,310.29Z"/><path class="cls-2" d="M218,304.24a30.35,30.35,0,0,1-3.21,14,24.83,24.83,0,0,1-8.54,9.75,26.14,26.14,0,0,1-8.25,3.46,54,54,0,0,1-12,1.07H172.38l0-56.68h13.5a52.45,52.45,0,0,1,12.57,1.2,26.47,26.47,0,0,1,7.89,3.29,24.81,24.81,0,0,1,8.61,9.63A31.07,31.07,0,0,1,218,304.24Zm-7.52-.11a25.54,25.54,0,0,0-2.22-11.23,16.56,16.56,0,0,0-6.6-7.19,21.63,21.63,0,0,0-6.79-2.65,42.76,42.76,0,0,0-8.6-.73h-6.75l0,43.74h6.75a45.28,45.28,0,0,0,9.05-.8,19.65,19.65,0,0,0,7.1-3,16.81,16.81,0,0,0,6-7.12A26.54,26.54,0,0,0,210.5,304.13Z"/><path class="cls-2" d="M272.21,275.82l-19.64,56.69H243L223.3,275.84H231l17,49.87,16.93-49.88Z"/><path class="cls-2" d="M316,332.48H280.44l0-56.68H316v6.7H287.6V298H316v6.7H287.61v21.05H316Z"/><path class="cls-2" d="M368.65,332.46h-8.89l-25.64-50.69,0,50.7h-6.71l0-56.68h11.13l23.39,46.28,0-46.29h6.71Z"/><path class="cls-2" d="M421.53,282.45h-19.3l0,50h-7.19l0-50h-19.3v-6.7l45.79,0Z"/><path class="cls-2" d="M469.48,309.65a39.93,39.93,0,0,1-1.29,10.75A17.54,17.54,0,0,1,464,328a16.83,16.83,0,0,1-6.53,4.23,26.14,26.14,0,0,1-8.71,1.33,25.45,25.45,0,0,1-8.85-1.4,16.47,16.47,0,0,1-6.36-4.15,18.35,18.35,0,0,1-4.23-7.54A39.15,39.15,0,0,1,428,309.67V275.75h7.18l0,34.29a34.59,34.59,0,0,0,.6,7.27,14.76,14.76,0,0,0,2,4.84,10,10,0,0,0,4.34,3.73,18.09,18.09,0,0,0,13.19,0,10,10,0,0,0,4.36-3.75,14.76,14.76,0,0,0,2-5,34,34,0,0,0,.59-6.95V275.73h7.18Z"/><path class="cls-2" d="M527.9,332.39h-9.32L500.5,309.86H490.38V332.4H483.2l0-56.68h15.13a42.07,42.07,0,0,1,8.16.66,16.63,16.63,0,0,1,5.88,2.38,13.93,13.93,0,0,1,4.59,4.89,15.06,15.06,0,0,1,1.66,7.48,17.27,17.27,0,0,1-2.94,10.26,17.84,17.84,0,0,1-8.09,6.22Zm-16.81-40.73a10.88,10.88,0,0,0-.82-4.32,7.58,7.58,0,0,0-2.7-3.18,9.82,9.82,0,0,0-3.71-1.53,24.73,24.73,0,0,0-5-.44h-8.46v21.4h7.26a24.91,24.91,0,0,0,5.95-.63,9.35,9.35,0,0,0,4.32-2.34,10.06,10.06,0,0,0,2.41-3.67A15.2,15.2,0,0,0,511.09,291.66Z"/><path class="cls-2" d="M570.47,332.37h-35.6l0-56.68h35.59v6.7H542v15.53h28.41v6.7H542v21.05h28.41Z"/><path class="cls-2" d="M621.12,316.17a15.71,15.71,0,0,1-1.47,6.55,15.52,15.52,0,0,1-4.12,5.48,21.38,21.38,0,0,1-6.76,3.81,27.82,27.82,0,0,1-9.31,1.37,43.84,43.84,0,0,1-10.5-1.13,51.13,51.13,0,0,1-9.49-3.39v-9.44H580a29.42,29.42,0,0,0,9.47,5.52,29.85,29.85,0,0,0,10.09,1.93q6.68,0,10.4-2.63a8.15,8.15,0,0,0,3.71-7c0-2.51-.59-4.37-1.76-5.56a11.75,11.75,0,0,0-5.35-2.78,52.57,52.57,0,0,0-5.9-1.25q-3.18-.5-6.73-1.25c-4.79-1.07-8.34-2.88-10.65-5.46a14.5,14.5,0,0,1-3.47-10.07,14.27,14.27,0,0,1,5.73-11.67q5.73-4.54,14.55-4.55a45.42,45.42,0,0,1,10.45,1.13,46.5,46.5,0,0,1,8.41,2.82v8.9h-.51a24.7,24.7,0,0,0-8.11-4.54,30.3,30.3,0,0,0-10.29-1.8q-5.78,0-9.27,2.51a7.68,7.68,0,0,0-3.5,6.48A8.15,8.15,0,0,0,589,295.7c1.16,1.35,3.2,2.37,6.13,3.08q2.32.54,6.6,1.3t7.26,1.55q6,1.68,9.08,5.06T621.12,316.17Z"/><polygon class="cls-1" points="621.08 251.32 400.23 30.34 386.87 43.73 386.86 43.72 340.8 89.81 265.86 14.84 265.87 14.83 251.06 0 0 251.32 29.63 251.32 251.04 29.66 251.04 29.66 325.98 104.64 296.04 134.6 310.86 149.43 400.23 60 400.23 60.01 591.43 251.32 591.47 251.37 621.12 251.37 621.08 251.32"/><polygon class="cls-2" points="530.7 250.62 501.06 250.62 400.15 149.65 370.16 179.67 370.16 179.67 355.36 194.5 355.34 194.49 340.75 209.1 325.93 194.27 325.98 194.22 251.15 119.33 119.24 251.33 89.61 251.33 236.32 104.5 236.31 104.49 251.13 89.66 296.04 134.6 310.85 149.43 340.8 179.38 400.2 119.94 415.02 134.77 414.96 134.83 530.7 250.62"/><polygon class="cls-2" points="251.21 179.32 236.41 194.13 179.23 251.32 208.85 251.32 251.21 208.94 293.56 251.32 323.21 251.32 251.23 179.3 251.21 179.32"/></svg>