<?xml version="1.0" encoding="UTF-8" standalone="no"?>
<svg
   xmlns:dc="http://purl.org/dc/elements/1.1/"
   xmlns:cc="http://creativecommons.org/ns#"
   xmlns:rdf="http://www.w3.org/1999/02/22-rdf-syntax-ns#"
   xmlns:svg="http://www.w3.org/2000/svg"
   xmlns="http://www.w3.org/2000/svg"
   xmlns:sodipodi="http://sodipodi.sourceforge.net/DTD/sodipodi-0.dtd"
   xmlns:inkscape="http://www.inkscape.org/namespaces/inkscape"
   width="84.793114mm"
   height="106.49654mm"
   viewBox="0 0 84.793114 106.49654"
   version="1.1"
   id="svg48"
   inkscape:version="1.0.1 (3bc2e813f5, 2020-09-07)"
   sodipodi:docname="tourist.svg">
  <defs
     id="defs42" />
  <sodipodi:namedview
     id="base"
     pagecolor="#ffffff"
     bordercolor="#666666"
     borderopacity="1.0"
     inkscape:pageopacity="0.0"
     inkscape:pageshadow="2"
     inkscape:zoom="0.35"
     inkscape:cx="-94.046798"
     inkscape:cy="-101.60383"
     inkscape:document-units="mm"
     inkscape:current-layer="layer1"
     inkscape:document-rotation="0"
     showgrid="false"
     fit-margin-top="0"
     fit-margin-left="0"
     fit-margin-right="0"
     fit-margin-bottom="0"
     inkscape:window-width="1920"
     inkscape:window-height="1001"
     inkscape:window-x="-9"
     inkscape:window-y="-9"
     inkscape:window-maximized="1" />
  <metadata
     id="metadata45">
    <rdf:RDF>
      <cc:Work
         rdf:about="">
        <dc:format>image/svg+xml</dc:format>
        <dc:type
           rdf:resource="http://purl.org/dc/dcmitype/StillImage" />
        <dc:title></dc:title>
      </cc:Work>
    </rdf:RDF>
  </metadata>
  <g
     inkscape:label="Layer 1"
     inkscape:groupmode="layer"
     id="layer1"
     transform="translate(-130.71655,-175.04935)">
    <path
       d="m 133.41481,175.39507 c -1.44639,0.56444 -2.39889,1.72861 -2.64583,3.10444 -0.81139,4.7625 8.00805,42.50972 11.67694,50.02389 2.04611,4.26861 3.70417,4.86833 14.35806,5.25639 l 6.49111,0.24694 0.24694,6.73806 c 0.10584,3.70416 0.28222,13.54666 0.38806,21.9075 0.10583,8.32555 0.28222,16.0161 0.38805,17.00388 l 0.17639,1.86972 h 25.4 25.36472 l 0.0353,-4.33916 c 0,-2.36361 0.0706,-5.00944 0.17639,-5.89139 0.21167,-2.2225 -0.49389,-28.18694 -0.91722,-33.3375 -0.88194,-10.44222 -1.94028,-14.88722 -3.98639,-16.61583 -1.51694,-1.30528 -2.8575,-1.79917 -6.84389,-2.61056 -4.97416,-1.02305 -4.83305,-1.09361 -3.70416,1.30528 l 0.9525,2.04611 0.10583,14.25222 0.10583,14.2875 1.05834,1.16417 1.02305,1.19945 v 8.64305 c 0,9.63083 -0.10583,10.19528 -2.25778,11.21833 -0.81139,0.38806 -2.15194,0.56445 -4.09222,0.56445 h -2.8575 l 0.635,-1.05833 c 0.59972,-1.02306 0.70556,-1.05834 3.175,-1.05834 3.70417,0 3.63361,0.21167 3.63361,-9.38389 0,-7.37305 -0.0353,-7.86694 -0.74083,-8.74889 l -0.70556,-0.91722 h -13.05278 c -12.55888,0 -13.05277,0.0353 -13.72305,0.70556 -0.67028,0.67028 -0.70556,1.16416 -0.70556,8.74889 0,9.06639 0.10584,9.59555 2.29306,9.59555 1.09361,0 2.29305,0.9525 2.29305,1.83445 0,0.45861 -2.78694,0.3175 -4.05694,-0.21167 -2.15194,-0.91722 -2.29306,-1.62278 -2.29306,-11.28889 v -8.60778 l 0.88195,-1.09361 c 0.49389,-0.56444 1.19944,-1.16416 1.5875,-1.27 0.635,-0.21166 0.67028,-0.81139 0.77611,-14.9225 0.10583,-14.39333 0.10583,-14.74611 0.88194,-16.43944 l 0.81139,-1.69334 -0.98777,0.17639 c -5.00945,0.9525 -6.38528,1.05834 -11.71223,0.67028 -6.13833,-0.42333 -8.89,-1.09361 -9.70139,-2.32833 -1.37583,-2.08139 -6.10305,-15.06361 -10.58333,-29.06889 -2.8575,-8.89 -3.70417,-10.795 -5.18583,-11.57111 -1.09361,-0.56444 -2.89278,-0.59972 -4.16278,-0.10583 z m 65.54611,80.46861 0.10583,1.69333 h -2.82222 -2.8575 v -1.51695 c 0,-0.84666 0.10584,-1.65805 0.24695,-1.79916 0.14111,-0.14111 1.37583,-0.17639 2.75166,-0.14111 l 2.46945,0.10583 z m -9.63083,2.54 c 5.3975,2.54 6.77333,9.06638 2.8575,13.51138 -1.79917,2.04612 -3.66889,2.89278 -6.31472,2.92806 -5.00945,0 -8.78417,-3.63361 -8.78417,-8.46667 0,-6.42055 6.52639,-10.68916 12.24139,-7.97277 z"
       id="path4"
       style="stroke-width:0.0352777" />
    <path
       d="m 183.33287,261.43756 c -1.86973,0.9525 -2.71639,2.2225 -2.92806,4.23334 -0.3175,3.28083 1.72861,5.64444 5.00944,5.92666 1.44639,0.10584 2.01084,-0.0353 2.99862,-0.70555 2.01083,-1.34056 2.68111,-2.57528 2.68111,-4.69195 0,-4.09222 -4.1275,-6.6675 -7.76111,-4.7625 z"
       id="path6"
       style="stroke-width:0.0352777" />
    <path
       d="m 184.14425,178.39368 c -2.96333,0.70555 -5.43277,2.08139 -7.76111,4.30389 -3.56305,3.38666 -5.22111,7.23194 -5.22111,12.065 0,9.56027 7.37306,16.93333 16.93334,16.93333 12.77055,0 20.77861,-13.26445 14.95777,-24.765 -1.34055,-2.64583 -4.7625,-5.92667 -7.54944,-7.26722 -3.81,-1.79917 -7.51417,-2.2225 -11.35945,-1.27 z"
       id="path10"
       style="stroke-width:0.0352777" />
    <path
       d="m 183.86203,216.67006 c -3.38666,0.38806 -4.09222,0.81139 -5.57389,3.66889 l -0.9525,1.76389 -0.10583,14.18167 c -0.10583,11.67694 -0.0353,14.21694 0.35278,14.21694 0.28222,0 0.67028,-0.49389 0.88194,-1.05833 0.3175,-0.84667 0.59972,-1.05833 1.44639,-1.05833 1.12889,0 2.18722,0.77611 2.18722,1.62277 0,0.42334 1.27,0.49389 7.76111,0.49389 h 7.76112 V 236.4609 c 0,-15.76917 0,-15.5575 -2.68112,-18.0975 -1.12888,-1.05834 -1.79916,-1.37584 -3.70416,-1.69334 -2.57528,-0.42333 -3.06917,-0.42333 -7.37306,0 z"
       id="path14"
       style="stroke-width:0.0352777" />
  </g>
</svg>
